<svg width="401" height="220" viewBox="0 0 401 220" fill="none" xmlns="http://www.w3.org/2000/svg">
<g clip-path="url(#clip0_7971_503620)">
<rect x="0.5" width="400" height="220" rx="12" fill="black"/>
<g clip-path="url(#clip1_7971_503620)">
<mask id="mask0_7971_503620" style="mask-type:alpha" maskUnits="userSpaceOnUse" x="1" y="0" width="400" height="224">
<rect x="1" width="400" height="224" fill="#D9D9D9"/>
</mask>
<g mask="url(#mask0_7971_503620)">
<rect x="-51.3896" y="-53.5474" width="400" height="89.3515" transform="rotate(21.8826 -51.3896 -53.5474)" fill="url(#paint0_linear_7971_503620)"/>
<rect x="84.6953" y="-74" width="442.718" height="143.329" transform="rotate(33.7918 84.6953 -74)" fill="url(#paint1_linear_7971_503620)"/>
<rect x="161.816" y="-65.4619" width="442.718" height="61.3885" transform="rotate(48.2731 161.816 -65.4619)" fill="url(#paint2_linear_7971_503620)"/>
<rect x="167.593" y="-109.49" width="442.718" height="108.46" transform="rotate(38.1428 167.593 -109.49)" fill="url(#paint3_linear_7971_503620)"/>
<rect x="288.966" y="-134.807" width="442.718" height="78.4233" transform="rotate(50.145 288.966 -134.807)" fill="url(#paint4_linear_7971_503620)"/>
<rect x="246.054" y="-128.318" width="442.718" height="39.5198" transform="rotate(59.6675 246.054 -128.318)" fill="url(#paint5_linear_7971_503620)"/>
</g>
<rect x="-53.9883" y="-52.6528" width="449.888" height="89.3515" transform="rotate(39.0303 -53.9883 -52.6528)" fill="url(#paint6_linear_7971_503620)"/>
<path d="M-73.5596 -16L117.484 127.106L109.334 164.506L-108.092 49.0072L-73.5596 -16Z" fill="url(#paint7_linear_7971_503620)"/>
<rect x="-125.46" y="44.51" width="449.888" height="55.9644" transform="rotate(24.8738 -125.46 44.51)" fill="url(#paint8_linear_7971_503620)"/>
<rect x="-111.81" y="70.9976" width="449.888" height="72.1708" transform="rotate(30.8958 -111.81 70.9976)" fill="url(#paint9_linear_7971_503620)"/>
</g>
</g>
<defs>
<linearGradient id="paint0_linear_7971_503620" x1="-32.8468" y1="-12.4499" x2="270.578" y2="-79.3586" gradientUnits="userSpaceOnUse">
<stop stop-color="#C765D1"/>
<stop offset="1" stop-color="#A833AA"/>
</linearGradient>
<linearGradient id="paint1_linear_7971_503620" x1="105.218" y1="-8.07526" x2="449.409" y2="-60.4432" gradientUnits="userSpaceOnUse">
<stop stop-color="#C765D1"/>
<stop offset="1" stop-color="#A833AA"/>
</linearGradient>
<linearGradient id="paint2_linear_7971_503620" x1="275.961" y1="-83.8335" x2="269.313" y2="-12.5182" gradientUnits="userSpaceOnUse">
<stop stop-color="#C765D1"/>
<stop offset="1" stop-color="#A833AA"/>
</linearGradient>
<linearGradient id="paint3_linear_7971_503620" x1="325.135" y1="63.7535" x2="244.163" y2="3.04835" gradientUnits="userSpaceOnUse">
<stop stop-color="#C765D1"/>
<stop offset="1" stop-color="#A833AA"/>
</linearGradient>
<linearGradient id="paint4_linear_7971_503620" x1="461.435" y1="-63.1715" x2="405.083" y2="31.2192" gradientUnits="userSpaceOnUse">
<stop stop-color="#C765D1"/>
<stop offset="1" stop-color="#A833AA"/>
</linearGradient>
<linearGradient id="paint5_linear_7971_503620" x1="420.985" y1="-89.0454" x2="407.866" y2="-124.838" gradientUnits="userSpaceOnUse">
<stop stop-color="#C765D1"/>
<stop offset="1" stop-color="#A833AA" stop-opacity="0.4"/>
</linearGradient>
<linearGradient id="paint6_linear_7971_503620" x1="139.501" y1="67.477" x2="136.766" y2="-45.9051" gradientUnits="userSpaceOnUse">
<stop stop-color="#C765D1"/>
<stop offset="1" stop-color="#A833AA"/>
</linearGradient>
<linearGradient id="paint7_linear_7971_503620" x1="93.0686" y1="135.872" x2="-1.03825" y2="57.8569" gradientUnits="userSpaceOnUse">
<stop stop-color="#C765D1" stop-opacity="0"/>
<stop offset="1" stop-color="#A833AA"/>
</linearGradient>
<linearGradient id="paint8_linear_7971_503620" x1="23.0814" y1="66.6163" x2="287.488" y2="160.965" gradientUnits="userSpaceOnUse">
<stop stop-color="#C765D1"/>
<stop offset="1" stop-color="#A833AA"/>
</linearGradient>
<linearGradient id="paint9_linear_7971_503620" x1="36.7321" y1="99.5055" x2="74.0495" y2="34.1957" gradientUnits="userSpaceOnUse">
<stop stop-color="#C765D1"/>
<stop offset="1" stop-color="#A833AA"/>
</linearGradient>
<clipPath id="clip0_7971_503620">
<rect x="0.5" width="400" height="220" rx="12" fill="white"/>
</clipPath>
<clipPath id="clip1_7971_503620">
<rect width="400" height="220" fill="white" transform="translate(1)"/>
</clipPath>
</defs>
</svg>
