<svg width="19" height="18" viewBox="0 0 19 18" fill="none" xmlns="http://www.w3.org/2000/svg">
<path fill-rule="evenodd" clip-rule="evenodd" d="M3.33337 8.58333C2.18278 8.58333 1.25004 7.65059 1.25004 6.5L1.25004 2.33333C1.25004 1.18274 2.18278 0.25 3.33337 0.25H7.50004C8.65063 0.25 9.58337 1.18274 9.58337 2.33333V6.5C9.58337 7.65059 8.65063 8.58333 7.50004 8.58333H3.33337ZM2.91671 6.5C2.91671 6.73012 3.10326 6.91667 3.33337 6.91667L7.50004 6.91667C7.73016 6.91667 7.91671 6.73012 7.91671 6.5V2.33333C7.91671 2.10322 7.73016 1.91667 7.50004 1.91667L3.33337 1.91667C3.10326 1.91667 2.91671 2.10322 2.91671 2.33333L2.91671 6.5Z" fill="#F0F2F5"/>
<path fill-rule="evenodd" clip-rule="evenodd" d="M6.39674 9.9952C5.62536 9.22382 4.37472 9.22382 3.60334 9.9952L1.4119 12.1866C0.64053 12.958 0.640531 14.2087 1.41191 14.98L3.60334 17.1715C4.37472 17.9428 5.62536 17.9428 6.39674 17.1715L8.58818 14.98C9.35955 14.2087 9.35955 12.958 8.58818 12.1866L6.39674 9.9952ZM4.78185 11.1737C4.90236 11.0532 5.09773 11.0532 5.21823 11.1737L7.40966 13.3651C7.53017 13.4856 7.53017 13.681 7.40966 13.8015L5.21823 15.993C5.09773 16.1135 4.90235 16.1135 4.78186 15.993L2.59042 13.8015C2.46992 13.681 2.46992 13.4856 2.59042 13.3651L4.78185 11.1737Z" fill="#F0F2F5"/>
<path fill-rule="evenodd" clip-rule="evenodd" d="M10.4167 15.6667C10.4167 16.8173 11.3494 17.75 12.5 17.75H16.6667C17.8173 17.75 18.75 16.8173 18.75 15.6667V11.5C18.75 10.3494 17.8173 9.41667 16.6667 9.41667H12.5C11.3494 9.41667 10.4167 10.3494 10.4167 11.5V15.6667ZM12.5 16.0833C12.2699 16.0833 12.0834 15.8968 12.0834 15.6667V11.5C12.0834 11.2699 12.2699 11.0833 12.5 11.0833H16.6667C16.8968 11.0833 17.0834 11.2699 17.0834 11.5V15.6667C17.0834 15.8968 16.8968 16.0833 16.6667 16.0833H12.5Z" fill="#F0F2F5"/>
<path fill-rule="evenodd" clip-rule="evenodd" d="M10.4167 4.41667C10.4167 6.71785 12.2822 8.58333 14.5834 8.58333C16.8846 8.58333 18.75 6.71785 18.75 4.41667C18.75 2.11548 16.8846 0.25 14.5834 0.25C12.2822 0.25 10.4167 2.11548 10.4167 4.41667ZM14.5834 1.91667C15.9641 1.91667 17.0834 3.03595 17.0834 4.41667C17.0834 5.79738 15.9641 6.91667 14.5834 6.91667C13.2027 6.91667 12.0834 5.79738 12.0834 4.41667C12.0834 3.03596 13.2027 1.91667 14.5834 1.91667Z" fill="#F0F2F5"/>
</svg>
