<svg width="252" height="252" viewBox="0 0 252 252" fill="none" xmlns="http://www.w3.org/2000/svg">
<path d="M203.017 111.688C205.693 111.688 207.863 109.518 207.863 106.841C207.863 104.165 205.693 101.995 203.017 101.995C200.34 101.995 198.17 104.165 198.17 106.841C198.17 109.518 200.34 111.688 203.017 111.688Z" fill="#F9FAFB"/>
<path d="M126 213.428C173.576 213.428 212.144 198.298 212.144 179.634C212.144 160.971 173.576 145.841 126 145.841C78.4236 145.841 39.8555 160.971 39.8555 179.634C39.8555 198.298 78.4236 213.428 126 213.428Z" fill="#F9FAFB"/>
<path d="M123.234 57.9412L119.655 80.3785H96.3965L123.234 57.9412Z" fill="#D0D5DD"/>
<path d="M119.655 80.9035H96.3963C96.1747 80.9035 95.9787 80.7658 95.9017 80.5581C95.827 80.3505 95.89 80.1171 96.058 79.9771L122.896 57.5375C123.064 57.3975 123.302 57.3765 123.491 57.4838C123.682 57.5911 123.785 57.8058 123.75 58.0228L120.171 80.4625C120.133 80.7168 119.914 80.9035 119.655 80.9035ZM97.843 79.8535H119.207L122.495 59.2431L97.843 79.8535Z" fill="#F9FAFB"/>
<path d="M125.379 100.121C125.218 100.121 125.057 100.046 124.954 99.9062L123.538 97.9742C123.379 97.7572 123.41 97.4539 123.61 97.2719C123.811 97.0922 124.117 97.0922 124.315 97.2765C124.324 97.2859 124.336 97.2952 124.345 97.3069C124.355 97.3162 124.364 97.3279 124.371 97.3372C124.394 97.3652 124.42 97.4025 124.446 97.4375L125.801 99.2855C125.972 99.5189 125.923 99.8479 125.689 100.018C125.596 100.088 125.489 100.121 125.379 100.121Z" fill="#F9FAFB"/>
<mask id="mask0_249_2273" style="mask-type:luminance" maskUnits="userSpaceOnUse" x="123" y="97" width="3" height="4">
<path d="M125.379 100.121C125.218 100.121 125.057 100.046 124.954 99.9062L123.538 97.9742C123.379 97.7572 123.41 97.4539 123.61 97.2719C123.811 97.0922 124.117 97.0922 124.315 97.2765C124.324 97.2859 124.336 97.2952 124.345 97.3069C124.355 97.3162 124.364 97.3279 124.371 97.3372C124.394 97.3652 124.42 97.4025 124.446 97.4375L125.801 99.2855C125.972 99.5189 125.923 99.8479 125.689 100.018C125.596 100.088 125.489 100.121 125.379 100.121Z" fill="white"/>
</mask>
<g mask="url(#mask0_249_2273)">
<path d="M125.082 99.0613L130.967 107.083C130.617 106.605 130.244 106.141 129.847 105.688C125.495 100.73 119.151 98.2493 112.412 98.2493C109.489 98.2493 106.493 98.716 103.55 99.6493L97.6655 91.6273C100.608 90.694 103.604 90.2273 106.528 90.2273C113.266 90.2273 119.611 92.7076 123.962 97.666C124.359 98.1186 124.732 98.583 125.082 99.0613Z" fill="#667185"/>
<path d="M130.967 107.608C130.806 107.608 130.645 107.534 130.542 107.394C130.202 106.927 129.833 106.47 129.45 106.033C125.341 101.353 119.291 98.7744 112.41 98.7744C109.51 98.7744 106.584 99.2364 103.707 100.149C103.492 100.216 103.259 100.139 103.123 99.9597L97.2387 91.9377C97.1383 91.8024 97.1103 91.6251 97.164 91.4641C97.2153 91.3031 97.3437 91.1771 97.5047 91.1257C100.484 90.1807 103.518 89.7024 106.525 89.7024C113.712 89.7024 120.045 92.4067 124.354 97.3184C124.758 97.7781 125.143 98.2611 125.505 98.7511L131.385 106.768C131.387 106.771 131.387 106.773 131.389 106.773C131.56 107.006 131.511 107.335 131.277 107.508C131.184 107.576 131.077 107.608 130.967 107.608ZM112.412 97.7244C117.8 97.7244 122.707 99.2457 126.643 102.076L124.66 99.3717C124.319 98.9051 123.951 98.4477 123.568 98.0114C119.459 93.3307 113.409 90.7524 106.528 90.7524C103.863 90.7524 101.175 91.1421 98.5267 91.9144L103.751 99.0381C106.614 98.1654 109.526 97.7244 112.412 97.7244Z" fill="#F9FAFB"/>
</g>
<path d="M94.2551 136.119C94.1104 136.119 93.9681 136.061 93.8631 135.944L93.7814 135.851C93.5108 135.541 93.2518 135.219 93.0114 134.892L87.1268 126.87C86.9564 126.637 87.0054 126.308 87.2388 126.137C87.4721 125.967 87.8011 126.016 87.9738 126.249L87.9784 126.256C88.2001 126.557 88.4381 126.854 88.6878 127.138L88.7624 127.222C88.7741 127.236 88.7857 127.248 88.7951 127.262L94.6797 135.284C94.8454 135.51 94.8058 135.825 94.5864 136.003C94.4884 136.082 94.3694 136.119 94.2551 136.119Z" fill="#F9FAFB"/>
<mask id="mask1_249_2273" style="mask-type:luminance" maskUnits="userSpaceOnUse" x="87" y="126" width="8" height="11">
<path d="M94.2551 136.119C94.1104 136.119 93.9681 136.061 93.8631 135.944L93.7814 135.851C93.5108 135.541 93.2518 135.219 93.0114 134.892L87.1268 126.87C86.9564 126.637 87.0054 126.308 87.2388 126.137C87.4721 125.967 87.8011 126.016 87.9738 126.249L87.9784 126.256C88.2001 126.557 88.4381 126.854 88.6878 127.138L88.7624 127.222C88.7741 127.236 88.7857 127.248 88.7951 127.262L94.6797 135.284C94.8454 135.51 94.8058 135.825 94.5864 136.003C94.4884 136.082 94.3694 136.119 94.2551 136.119Z" fill="white"/>
</mask>
<g mask="url(#mask1_249_2273)">
<g opacity="0.6">
<path d="M88.7972 128.03L94.6818 136.052C94.5092 135.874 94.3388 135.692 94.1755 135.506C93.9118 135.207 93.6645 134.897 93.4335 134.582L87.5488 126.56C87.7798 126.875 88.0272 127.185 88.2908 127.484C88.4542 127.67 88.6245 127.852 88.7972 128.03Z" fill="#667185"/>
<path d="M94.682 136.577C94.5443 136.577 94.409 136.523 94.3063 136.418C94.1243 136.234 93.947 136.042 93.779 135.851C93.5083 135.543 93.2493 135.221 93.009 134.892L87.1243 126.87C86.954 126.637 87.003 126.308 87.2363 126.137C87.4696 125.967 87.7986 126.016 87.9713 126.249L87.976 126.256C88.1976 126.557 88.4356 126.854 88.6853 127.138C88.8416 127.316 89.005 127.493 89.173 127.663C89.1916 127.682 89.2056 127.701 89.222 127.719L95.1066 135.741C95.27 135.963 95.2326 136.273 95.0226 136.453C94.9246 136.537 94.8033 136.577 94.682 136.577Z" fill="#F9FAFB"/>
</g>
</g>
<path d="M94.682 136.577C94.5443 136.577 94.409 136.523 94.3063 136.418C94.1546 136.264 94.0053 136.105 93.8606 135.942C93.856 135.935 93.849 135.93 93.8443 135.923C93.7836 135.849 93.7136 135.751 93.6483 135.66L93.576 135.559L87.9433 127.88C87.7776 127.654 87.8173 127.339 88.0366 127.162C88.2536 126.984 88.571 127.01 88.7576 127.22C88.893 127.369 89.0306 127.516 89.1706 127.661C89.187 127.68 89.2033 127.698 89.2196 127.717L95.1043 135.739C95.2676 135.961 95.2303 136.271 95.0203 136.451C94.9223 136.537 94.8033 136.577 94.682 136.577Z" fill="#F9FAFB"/>
<mask id="mask2_249_2273" style="mask-type:luminance" maskUnits="userSpaceOnUse" x="87" y="127" width="9" height="10">
<path d="M94.682 136.577C94.5443 136.577 94.409 136.523 94.3063 136.418C94.1546 136.264 94.0053 136.105 93.8606 135.942C93.856 135.935 93.849 135.93 93.8443 135.923C93.7836 135.849 93.7136 135.751 93.6483 135.66L93.576 135.559L87.9433 127.88C87.7776 127.654 87.8173 127.339 88.0366 127.162C88.2536 126.984 88.571 127.01 88.7576 127.22C88.893 127.369 89.0306 127.516 89.1706 127.661C89.187 127.68 89.2033 127.698 89.2196 127.717L95.1043 135.739C95.2676 135.961 95.2303 136.271 95.0203 136.451C94.9223 136.537 94.8033 136.577 94.682 136.577Z" fill="white"/>
</mask>
<g mask="url(#mask2_249_2273)">
<g opacity="0.6">
<path d="M88.7972 128.03L94.6818 136.052C94.5092 135.874 94.3388 135.692 94.1755 135.506C93.9118 135.207 93.6645 134.897 93.4335 134.582L87.5488 126.56C87.7798 126.875 88.0272 127.185 88.2908 127.484C88.4542 127.67 88.6245 127.852 88.7972 128.03Z" fill="#667185"/>
<path d="M94.682 136.577C94.5443 136.577 94.409 136.523 94.3063 136.418C94.1243 136.234 93.947 136.042 93.779 135.851C93.5083 135.543 93.2493 135.221 93.009 134.892L87.1243 126.87C86.954 126.637 87.003 126.308 87.2363 126.137C87.4696 125.967 87.7986 126.016 87.9713 126.249L87.976 126.256C88.1976 126.557 88.4356 126.854 88.6853 127.138C88.8416 127.316 89.005 127.493 89.173 127.663C89.1916 127.682 89.2056 127.701 89.222 127.719L95.1066 135.741C95.27 135.963 95.2326 136.273 95.0226 136.453C94.9246 136.537 94.8033 136.577 94.682 136.577Z" fill="#F9FAFB"/>
</g>
</g>
<path d="M119.331 118.174C119.191 118.617 119.03 119.063 118.852 119.501C118.472 120.444 118.01 121.37 117.466 122.269C117.205 122.7 116.927 123.127 116.626 123.547C115.609 124.982 114.372 126.331 112.926 127.537C108.989 130.83 104.257 132.472 99.7867 132.472C95.3184 132.472 91.1114 130.827 88.2274 127.537C82.4524 120.957 84.1534 110.294 92.0237 103.719C95.9601 100.426 100.692 98.7837 105.163 98.7837C109.631 98.7837 113.838 100.429 116.722 103.719C116.806 103.814 116.885 103.908 116.96 104.003C117.336 104.456 117.681 104.93 117.989 105.413C118.547 106.29 118.988 107.212 119.328 108.178C119.503 108.668 119.648 109.169 119.762 109.678C120.395 112.399 120.234 115.329 119.331 118.174Z" fill="#E4E7EC"/>
<path d="M119.765 109.678H104.374C102.75 109.678 101.633 108.411 101.885 106.843C102.134 105.275 103.653 104.008 105.28 104.008H116.965C117.341 104.461 117.686 104.935 117.994 105.418C118.552 106.295 118.993 107.217 119.333 108.183C119.506 108.668 119.651 109.17 119.765 109.678Z" fill="#98A2B3"/>
<path d="M119.331 118.174C119.191 118.617 119.03 119.063 118.852 119.501C118.472 120.444 118.01 121.37 117.466 122.269C117.205 122.7 116.927 123.127 116.626 123.547H102.001C100.459 123.547 99.4087 122.343 99.6444 120.859C99.8824 119.375 101.32 118.171 102.857 118.171H119.331V118.174Z" fill="#98A2B3"/>
<path d="M123.702 57.5515H188.627L187.635 63.7722L170.574 170.746H88.4357H81.9863L87.1453 138.392C90.5427 140.152 94.4207 141.031 98.4363 141.031C103.833 141.031 109.482 139.442 114.567 136.262H160.09C160.881 136.262 161.616 135.646 161.74 134.883C161.861 134.125 161.32 133.509 160.531 133.509H118.34C122.194 130.261 125.053 126.359 126.854 122.239H162.328C163.119 122.239 163.854 121.623 163.975 120.864C164.096 120.104 163.555 119.485 162.766 119.485H127.895C129.092 115.731 129.423 111.874 128.854 108.215H164.563C165.354 108.215 166.089 107.599 166.21 106.841C166.332 106.08 165.79 105.462 165.002 105.462H128.24C127.409 102.632 125.993 99.9809 123.965 97.6639C119.614 92.7055 113.269 90.2252 106.531 90.2252C102.517 90.2252 98.3663 91.1049 94.409 92.8619L96.3993 80.3762H119.658L123.237 57.9412L123.702 57.5515ZM157.855 150.283C158.646 150.283 159.381 149.667 159.504 148.904C159.626 148.146 159.084 147.53 158.296 147.53H102.914C102.128 147.53 101.39 148.146 101.269 148.904C101.148 149.665 101.689 150.283 102.475 150.283H157.855ZM166.801 94.1942C167.592 94.1942 168.327 93.5782 168.448 92.8198C168.569 92.0592 168.028 91.4409 167.239 91.4409H129.698C128.91 91.4409 128.175 92.0568 128.053 92.8198C127.932 93.5782 128.469 94.1942 129.26 94.1942H166.801Z" fill="#F7F9FC"/>
<path d="M170.574 171.269H81.9862C81.8322 171.269 81.6875 171.201 81.5872 171.085C81.4869 170.968 81.4449 170.814 81.4682 170.662L86.6295 138.308C86.6552 138.143 86.7602 137.998 86.9119 137.923C87.0612 137.846 87.2409 137.849 87.3902 137.926C90.6522 139.615 94.4719 140.506 98.4385 140.506C103.906 140.506 109.387 138.885 114.289 135.816C114.373 135.765 114.469 135.737 114.567 135.737H160.09C160.622 135.737 161.14 135.308 161.219 134.801C161.252 134.596 161.205 134.405 161.086 134.265C160.96 134.115 160.762 134.034 160.529 134.034H118.34C118.118 134.034 117.922 133.896 117.847 133.688C117.773 133.481 117.833 133.25 118.001 133.107C121.655 130.027 124.551 126.196 126.373 122.029C126.457 121.837 126.646 121.714 126.854 121.714H162.328C162.86 121.714 163.378 121.287 163.457 120.78C163.49 120.573 163.443 120.381 163.324 120.241C163.198 120.092 163 120.01 162.766 120.01H127.895C127.727 120.01 127.57 119.931 127.47 119.796C127.372 119.66 127.344 119.485 127.393 119.327C128.562 115.661 128.886 111.846 128.333 108.297C128.31 108.145 128.354 107.991 128.452 107.875C128.55 107.758 128.697 107.69 128.851 107.69H164.561C165.093 107.69 165.611 107.263 165.69 106.757C165.723 106.549 165.676 106.358 165.557 106.218C165.431 106.069 165.233 105.987 164.999 105.987H128.24C128.007 105.987 127.801 105.833 127.736 105.609C126.905 102.774 125.503 100.217 123.569 98.0092C119.46 93.3285 113.409 90.7502 106.528 90.7502C102.552 90.7502 98.4339 91.6462 94.6189 93.3425C94.4439 93.4195 94.2385 93.3962 94.0845 93.2795C93.9305 93.1629 93.8559 92.9715 93.8862 92.7802L95.8765 80.2945C95.9162 80.0402 96.1379 79.8512 96.3945 79.8512H119.205L122.712 57.8572C122.731 57.7335 122.796 57.6192 122.892 57.5375L123.359 57.1432C123.454 57.0639 123.573 57.0195 123.697 57.0195H188.627C188.781 57.0195 188.925 57.0872 189.026 57.2039C189.126 57.3205 189.168 57.4745 189.145 57.6262L171.092 170.821C171.052 171.082 170.833 171.269 170.574 171.269ZM82.5999 170.219H170.126L188.011 58.0742H123.893L123.723 58.2189L120.176 80.4625C120.136 80.7169 119.915 80.9059 119.658 80.9059H96.8472L95.0762 92.0102C98.7745 90.4982 102.713 89.7025 106.531 89.7025C113.717 89.7025 120.05 92.4069 124.36 97.3185C126.308 99.5445 127.743 102.104 128.63 104.937H165.004C165.541 104.937 166.035 105.156 166.36 105.537C166.682 105.915 166.815 106.407 166.731 106.923C166.567 107.942 165.615 108.74 164.563 108.74H129.458C129.883 112.051 129.589 115.558 128.602 118.96H162.766C163.303 118.96 163.798 119.18 164.122 119.56C164.444 119.938 164.577 120.43 164.493 120.946C164.33 121.966 163.378 122.764 162.325 122.764H127.195C125.484 126.548 122.922 130.051 119.73 132.984H160.529C161.065 132.984 161.56 133.203 161.884 133.583C162.206 133.961 162.337 134.451 162.255 134.967C162.092 135.987 161.14 136.787 160.088 136.787H114.716C109.678 139.909 104.053 141.556 98.4362 141.556C94.5605 141.556 90.8155 140.737 87.5512 139.179L82.5999 170.219ZM157.855 150.808H102.475C101.941 150.808 101.446 150.591 101.122 150.208C100.8 149.83 100.667 149.338 100.751 148.82C100.914 147.8 101.864 147.002 102.914 147.002H158.293C158.83 147.002 159.325 147.222 159.649 147.602C159.971 147.98 160.102 148.47 160.02 148.986C159.859 150.008 158.907 150.808 157.855 150.808ZM102.914 148.055C102.384 148.055 101.869 148.482 101.787 148.988C101.754 149.196 101.801 149.389 101.92 149.529C102.046 149.679 102.244 149.76 102.473 149.76H157.852C158.384 149.76 158.902 149.331 158.982 148.825C159.014 148.619 158.968 148.428 158.849 148.288C158.723 148.139 158.524 148.057 158.291 148.057H102.914V148.055ZM166.801 94.7192H129.26C128.723 94.7192 128.231 94.5022 127.906 94.1219C127.584 93.7439 127.454 93.2539 127.535 92.7382C127.699 91.7162 128.648 90.9182 129.698 90.9182H167.239C167.776 90.9182 168.271 91.1375 168.595 91.5179C168.917 91.8959 169.05 92.3882 168.966 92.9039C168.805 93.9212 167.853 94.7192 166.801 94.7192ZM129.698 91.9659C129.169 91.9659 128.653 92.3952 128.571 92.9015C128.539 93.1092 128.585 93.3005 128.704 93.4382C128.83 93.5852 129.026 93.6669 129.26 93.6669H166.801C167.333 93.6669 167.851 93.2399 167.93 92.7335C167.963 92.5259 167.916 92.3345 167.797 92.1945C167.671 92.0452 167.473 91.9635 167.239 91.9635H129.698V91.9659Z" fill="#F9FAFB"/>
<g opacity="0.5">
<g opacity="0.6">
<path d="M92.7523 103.231L92.1946 106.733C92.1083 106.799 92.022 106.864 91.938 106.936C90.041 108.518 89.6326 111.09 91.0233 112.674C91.084 112.744 91.1493 112.812 91.217 112.875L88.7996 128.027C88.627 127.85 88.4566 127.668 88.2933 127.481C85.4233 124.208 84.4106 119.917 85.0966 115.628C85.7803 111.337 88.1603 107.048 92.0756 103.777C92.295 103.59 92.5236 103.408 92.7523 103.231Z" fill="#D0D5DD"/>
</g>
</g>
<path d="M162.765 119.485C163.556 119.485 164.095 120.101 163.974 120.864C163.853 121.622 163.115 122.238 162.327 122.238H126.853C127.252 121.331 127.6 120.411 127.891 119.485H162.765Z" fill="#D0D5DD"/>
<path d="M162.327 122.764H126.853C126.676 122.764 126.51 122.675 126.415 122.526C126.319 122.376 126.303 122.19 126.373 122.029C126.767 121.128 127.11 120.22 127.392 119.329C127.46 119.11 127.663 118.963 127.894 118.963H162.766C163.302 118.963 163.797 119.182 164.121 119.562C164.443 119.94 164.576 120.433 164.492 120.948C164.331 121.966 163.379 122.764 162.327 122.764ZM127.647 121.714H162.327C162.859 121.714 163.377 121.287 163.456 120.78C163.489 120.573 163.442 120.381 163.323 120.241C163.197 120.092 162.999 120.01 162.766 120.01H128.274C128.088 120.575 127.878 121.144 127.647 121.714Z" fill="#D0D5DD"/>
<path d="M160.532 133.506C161.323 133.506 161.862 134.122 161.74 134.88C161.619 135.641 160.882 136.259 160.091 136.259H114.565C115.827 135.471 117.055 134.582 118.233 133.597C118.268 133.567 118.305 133.536 118.34 133.508H160.532V133.506Z" fill="#D0D5DD"/>
<path d="M160.09 136.784H114.565C114.331 136.784 114.124 136.63 114.061 136.404C113.995 136.18 114.089 135.937 114.287 135.814C115.54 135.03 116.753 134.148 117.897 133.193L117.995 133.112C118.09 133.032 118.216 132.983 118.34 132.983H160.531C161.068 132.983 161.563 133.203 161.887 133.583C162.209 133.961 162.34 134.451 162.258 134.967C162.095 135.984 161.145 136.784 160.09 136.784ZM116.305 135.734H160.09C160.622 135.734 161.14 135.305 161.22 134.799C161.252 134.593 161.206 134.402 161.087 134.262C160.961 134.113 160.762 134.031 160.529 134.031H118.529C117.815 134.628 117.071 135.198 116.305 135.734Z" fill="#D0D5DD"/>
<path d="M193.926 64.7755L193.095 69.9928L192.934 70.9985L176.034 176.962H86.548L81.9863 170.744H170.574L187.635 63.7745L188.629 57.5515L193.926 64.7755Z" fill="#E4E7EC"/>
<path d="M176.033 177.487H86.5501C86.3821 177.487 86.2257 177.408 86.1277 177.273L81.5637 171.054C81.4471 170.896 81.4284 170.683 81.5194 170.506C81.6081 170.329 81.7901 170.219 81.9884 170.219H170.128L187.119 63.6906L188.113 57.4676C188.146 57.2576 188.302 57.0896 188.507 57.0406C188.715 56.9916 188.93 57.0686 189.053 57.2413L194.35 64.4653C194.434 64.5773 194.467 64.7196 194.446 64.8573L193.454 71.0803L176.551 177.046C176.509 177.301 176.29 177.487 176.033 177.487ZM86.8137 176.437H175.583L192.416 70.9146L193.372 64.9086L188.948 58.8746L188.153 63.8563L171.091 170.826C171.052 171.08 170.83 171.269 170.573 171.269H83.0221L86.8137 176.437Z" fill="#F9FAFB"/>
<path d="M181.491 183.185L187.376 191.207H98.7836L92.8989 183.185H181.491Z" fill="#D0D5DD"/>
<path d="M187.375 191.732H98.7833C98.6153 191.732 98.459 191.653 98.361 191.517L92.4763 183.495C92.3597 183.337 92.341 183.124 92.432 182.947C92.5207 182.77 92.7027 182.66 92.901 182.66H181.493C181.661 182.66 181.817 182.739 181.915 182.875L187.8 190.897C187.917 191.055 187.935 191.268 187.844 191.445C187.753 191.62 187.574 191.732 187.375 191.732ZM99.0493 190.682H186.339L181.225 183.71H93.9347L99.0493 190.682Z" fill="#F9FAFB"/>
<path d="M199.544 69.9927L181.491 183.185H92.8989L93.8906 176.962H176.033L193.092 69.9927H199.544Z" fill="#F7F9FC"/>
<path d="M181.491 183.71H92.8988C92.7448 183.71 92.6001 183.642 92.4998 183.526C92.3995 183.409 92.3575 183.255 92.3808 183.103L93.3725 176.883C93.4121 176.628 93.6338 176.439 93.8905 176.439H175.585L192.574 69.9111C192.614 69.6568 192.835 69.4678 193.092 69.4678H199.544C199.698 69.4678 199.842 69.5354 199.943 69.6521C200.043 69.7688 200.085 69.9228 200.062 70.0744L182.009 183.267C181.969 183.521 181.75 183.71 181.491 183.71ZM93.5148 182.66H181.043L198.928 70.5178H193.54L176.551 177.046C176.511 177.3 176.29 177.489 176.033 177.489H94.3385L93.5148 182.66Z" fill="#F9FAFB"/>
<path d="M199.544 69.9927L205.428 78.0147L187.375 191.207L181.491 183.185L199.544 69.9927Z" fill="#E4E7EC"/>
<path d="M187.376 191.732C187.21 191.732 187.054 191.655 186.953 191.517L181.069 183.495C180.985 183.383 180.952 183.241 180.973 183.101L199.026 69.9088C199.059 69.6988 199.215 69.5308 199.42 69.4818C199.628 69.4328 199.843 69.5098 199.966 69.6825L205.851 77.7045C205.935 77.8165 205.968 77.9588 205.947 78.0988L187.894 191.291C187.861 191.501 187.705 191.669 187.499 191.718C187.457 191.727 187.415 191.732 187.376 191.732ZM182.044 183.05L187.054 189.882L204.873 78.1478L199.864 71.3158L182.044 183.05Z" fill="#F9FAFB"/>
<path d="M83.9783 136.383L53.407 161.94C53.3347 162.001 53.26 162.054 53.1853 162.11C53.1503 162.136 53.1177 162.162 53.0827 162.187C53.022 162.229 52.959 162.267 52.8983 162.306C52.854 162.334 52.8097 162.365 52.7653 162.39C52.7327 162.409 52.6977 162.425 52.665 162.444C52.5833 162.488 52.4993 162.533 52.4153 162.57C52.385 162.584 52.3547 162.596 52.3243 162.607C52.2123 162.656 52.1003 162.698 51.9883 162.736C51.937 162.754 51.8833 162.771 51.8297 162.787C51.7877 162.799 51.7433 162.813 51.7013 162.822C51.6337 162.838 51.566 162.855 51.4983 162.869C51.4563 162.878 51.4143 162.885 51.3747 162.892C51.3 162.904 51.2277 162.913 51.153 162.922C51.118 162.927 51.083 162.932 51.048 162.934C50.9407 162.943 50.831 162.948 50.7237 162.948C49.809 162.948 48.9503 162.612 48.36 161.94L47.2703 160.699C47.2167 160.638 47.1677 160.575 47.1187 160.51L53.0033 168.532C53.05 168.597 53.1013 168.66 53.155 168.721L54.2447 169.962C54.835 170.634 55.6937 170.97 56.6083 170.97C56.7157 170.97 56.823 170.965 56.9327 170.956C56.9677 170.954 57.0027 170.947 57.0377 170.944C57.1123 170.935 57.1847 170.926 57.2593 170.914C57.3013 170.907 57.3433 170.898 57.383 170.891C57.4507 170.877 57.5183 170.863 57.586 170.844C57.6303 170.832 57.6723 170.821 57.7143 170.809C57.7447 170.8 57.7773 170.793 57.8077 170.783C57.8287 170.776 57.8497 170.767 57.873 170.758C57.9873 170.72 58.0993 170.676 58.209 170.629C58.23 170.62 58.2533 170.613 58.2767 170.604C58.286 170.599 58.293 170.594 58.3023 170.592C58.3863 170.552 58.468 170.51 58.552 170.466C58.5823 170.45 58.6127 170.438 58.643 170.419C58.6477 170.417 58.65 170.415 58.6523 170.412C58.6967 170.387 58.741 170.356 58.7853 170.328C58.8413 170.293 58.8997 170.261 58.9557 170.221C58.9603 170.219 58.965 170.214 58.9697 170.209C59.0047 170.186 59.0373 170.158 59.0723 170.132C59.1283 170.09 59.1867 170.051 59.2403 170.006C59.259 169.992 59.2753 169.978 59.294 169.962L89.8653 144.405L83.9783 136.383Z" fill="#667185"/>
<path d="M56.6061 171.495C55.5001 171.495 54.5201 171.073 53.8481 170.307L52.7585 169.066C52.6955 168.994 52.6348 168.919 52.5788 168.842L46.6965 160.825C46.6965 160.822 46.6941 160.822 46.6941 160.82C46.5238 160.587 46.5728 160.258 46.8061 160.087C47.0395 159.917 47.3685 159.966 47.5388 160.199L47.5411 160.204C47.5785 160.255 47.6181 160.304 47.6601 160.353L48.7498 161.595C49.2188 162.129 49.9188 162.423 50.7191 162.423C50.8125 162.423 50.9035 162.418 50.9968 162.409L51.0901 162.397C51.1531 162.39 51.2161 162.383 51.2815 162.372C51.3071 162.367 51.3351 162.362 51.3608 162.355L51.3911 162.348C51.4495 162.337 51.5101 162.323 51.5685 162.309C51.6058 162.299 51.6455 162.288 51.6828 162.278C51.7295 162.264 51.7738 162.25 51.8205 162.234C51.9185 162.201 52.0165 162.164 52.1145 162.122L52.1938 162.089C52.2685 162.054 52.3408 162.017 52.4131 161.977L52.5018 161.931C52.5205 161.919 52.5415 161.907 52.5601 161.893L52.6581 161.83C52.7001 161.805 52.7398 161.779 52.7818 161.751C52.7958 161.742 52.8098 161.73 52.8238 161.718L52.8915 161.667C52.9498 161.623 53.0105 161.581 53.0665 161.532L83.6378 135.975C83.7498 135.881 83.8921 135.839 84.0368 135.856C84.1815 135.872 84.3098 135.949 84.3961 136.066L90.2808 144.088C90.4441 144.312 90.4068 144.624 90.1945 144.802L59.5671 170.415C59.5181 170.454 59.4691 170.492 59.4178 170.527L59.3501 170.576C59.3221 170.597 59.2941 170.618 59.2661 170.639C59.2031 170.683 59.1541 170.713 59.1051 170.744L59.0188 170.797C58.9861 170.818 58.9535 170.839 58.9208 170.858C58.9115 170.865 58.9021 170.87 58.8928 170.874C58.8718 170.886 58.8438 170.9 58.8181 170.912L58.7971 170.921C58.7038 170.97 58.6128 171.019 58.5171 171.063C58.5195 171.063 58.5031 171.07 58.4891 171.077C58.4658 171.087 58.4401 171.098 58.4145 171.108C58.2885 171.161 58.1625 171.21 58.0365 171.252C58.0155 171.262 57.9875 171.271 57.9618 171.28C57.9385 171.287 57.9105 171.294 57.8848 171.301L57.8591 171.308C57.8101 171.322 57.7611 171.336 57.7121 171.348C57.6351 171.367 57.5605 171.385 57.4835 171.399L57.4578 171.404C57.4181 171.411 57.3808 171.42 57.3411 171.427C57.2571 171.441 57.1731 171.453 57.0915 171.462L57.0611 171.467C57.0308 171.472 57.0028 171.474 56.9725 171.476C56.8418 171.49 56.7228 171.495 56.6061 171.495ZM49.8815 163.389L53.4281 168.224C53.4655 168.275 53.5075 168.326 53.5495 168.375L54.6391 169.617C55.1618 170.214 55.9831 170.51 56.8861 170.433L56.9771 170.422C57.0401 170.415 57.1055 170.408 57.1685 170.396C57.1941 170.391 57.2221 170.387 57.2478 170.38L57.2758 170.375C57.3365 170.363 57.3948 170.349 57.4531 170.335C57.4905 170.326 57.5278 170.314 57.5675 170.305L57.6468 170.284C57.6608 170.277 57.6841 170.268 57.7051 170.261C57.8031 170.228 57.9035 170.191 58.0015 170.146C58.0201 170.137 58.0411 170.13 58.0621 170.123L58.0785 170.116C58.1555 170.081 58.2278 170.041 58.3025 170.002C58.3211 169.99 58.3421 169.981 58.3608 169.971L58.3771 169.962C58.3818 169.957 58.3888 169.955 58.3935 169.953C58.4098 169.943 58.4308 169.929 58.4518 169.918L58.5615 169.85C58.5941 169.831 58.6268 169.81 58.6571 169.789C58.6851 169.768 58.6991 169.759 58.7131 169.747L58.8018 169.68C58.8368 169.654 58.8718 169.628 58.9068 169.6L58.9535 169.563L89.1491 144.321L83.8875 137.146L53.7431 162.344C53.6685 162.404 53.5938 162.463 53.5168 162.519L53.4655 162.558C53.4375 162.579 53.4118 162.6 53.3838 162.619C53.3278 162.656 53.2718 162.691 53.2158 162.726L53.1341 162.778C53.0991 162.801 53.0641 162.822 53.0291 162.843C53.0011 162.859 52.9731 162.873 52.9451 162.887L52.9148 162.904C52.8238 162.953 52.7305 163.002 52.6371 163.046C52.6115 163.058 52.5858 163.069 52.5578 163.079L52.5321 163.09C52.4085 163.144 52.2825 163.193 52.1541 163.235C52.0958 163.256 52.0351 163.275 51.9768 163.291C51.9278 163.305 51.8788 163.319 51.8298 163.331C51.7551 163.349 51.6781 163.368 51.6011 163.382L51.5755 163.387C51.5381 163.394 51.4985 163.403 51.4611 163.408C51.3771 163.422 51.2955 163.433 51.2115 163.443L51.1788 163.447C51.1508 163.452 51.1205 163.454 51.0901 163.457C50.9595 163.468 50.8381 163.473 50.7215 163.473C50.4321 163.473 50.1498 163.445 49.8815 163.389Z" fill="#F9FAFB"/>
<path d="M128.854 108.215C128.709 107.284 128.504 106.362 128.238 105.462C127.409 102.629 125.991 99.9806 123.963 97.6636C119.611 92.7053 113.267 90.2273 106.528 90.2273C102.513 90.2273 98.3616 91.1046 94.4066 92.8663C91.7139 94.0633 89.1146 95.664 86.7113 97.673C76.0969 106.544 72.9306 120.358 78.6216 130.274L48.0456 155.836C46.4403 157.175 46.0949 159.352 47.2709 160.699L48.3606 161.94C48.9486 162.612 49.8119 162.95 50.7219 162.95C51.6366 162.95 52.6049 162.612 53.4053 161.94L83.9789 136.385C84.9776 137.144 86.0369 137.816 87.1453 138.39C90.5426 140.147 94.4206 141.029 98.4363 141.029C103.836 141.029 109.485 139.442 114.564 136.259C115.829 135.471 117.054 134.582 118.342 133.506C122.194 130.256 125.055 126.357 126.856 122.234C127.251 121.331 127.601 120.407 127.892 119.48C129.089 115.733 129.423 111.871 128.854 108.215ZM112.926 127.54C108.99 130.832 104.258 132.475 99.7873 132.475C95.3189 132.475 91.1119 130.83 88.2279 127.54C82.4529 120.96 84.1539 110.296 92.0243 103.721C95.9606 100.429 100.693 98.786 105.163 98.786C109.632 98.786 113.839 100.431 116.723 103.721C116.807 103.817 116.886 103.91 116.961 104.006C117.336 104.458 117.682 104.932 117.99 105.415C118.547 106.292 118.988 107.214 119.329 108.18C119.504 108.67 119.649 109.172 119.763 109.68C120.393 112.403 120.234 115.334 119.329 118.176C119.189 118.619 119.028 119.065 118.851 119.504C118.47 120.446 118.008 121.373 117.465 122.271C117.203 122.703 116.926 123.13 116.625 123.55C115.612 124.985 114.373 126.333 112.926 127.54Z" fill="#98A2B3"/>
<path d="M50.7219 163.475C49.6159 163.475 48.6359 163.053 47.9662 162.285L46.8765 161.044C46.2745 160.353 45.9852 159.446 46.0599 158.489C46.1509 157.346 46.7506 156.23 47.7096 155.432L77.9519 130.151C75.2895 125.274 74.6105 119.366 76.0432 113.458C77.5249 107.352 81.1952 101.602 86.3776 97.2694C88.7669 95.2721 91.3989 93.6294 94.1966 92.3857C98.1399 90.6311 102.405 89.7024 106.533 89.7024C113.72 89.7024 120.052 92.4067 124.362 97.3184C126.401 99.6471 127.876 102.337 128.746 105.315C129.015 106.227 129.227 107.174 129.376 108.133C129.955 111.841 129.614 115.822 128.396 119.641C128.105 120.568 127.75 121.51 127.342 122.444C125.456 126.758 122.46 130.72 118.683 133.907C117.404 134.976 116.149 135.891 114.844 136.703C109.781 139.874 104.109 141.551 98.4386 141.551C94.3062 141.551 90.3185 140.618 86.9072 138.854C85.9039 138.336 84.9286 137.729 83.9999 137.053L53.7412 162.344C52.8709 163.072 51.7999 163.475 50.7219 163.475ZM106.531 90.7524C102.55 90.7524 98.4315 91.6484 94.6212 93.3447C91.9122 94.5487 89.3642 96.1401 87.0496 98.0744C76.7502 106.682 73.3972 120.115 79.0789 130.011C79.2049 130.232 79.1559 130.512 78.9599 130.676L48.3816 156.237C47.6396 156.858 47.1729 157.707 47.1052 158.571C47.0516 159.245 47.2499 159.877 47.6652 160.351L48.7549 161.592C49.2239 162.129 49.9216 162.423 50.7219 162.423C51.5526 162.423 52.3879 162.108 53.0692 161.536L83.6429 135.982C83.8319 135.825 84.1026 135.818 84.2986 135.968C85.2762 136.712 86.3145 137.37 87.3879 137.923C90.6499 139.61 94.4719 140.504 98.4386 140.504C103.91 140.504 109.391 138.882 114.287 135.816C115.549 135.027 116.767 134.141 118.006 133.105C121.66 130.025 124.553 126.193 126.376 122.026C126.77 121.125 127.111 120.218 127.393 119.326C128.562 115.658 128.889 111.846 128.336 108.297C128.193 107.384 127.993 106.481 127.736 105.613C126.91 102.783 125.508 100.226 123.569 98.0114C119.462 93.3307 113.409 90.7524 106.531 90.7524ZM99.7872 133C94.9689 133 90.7222 131.184 87.8312 127.885C85.2506 124.945 84.0069 121.053 84.3265 116.923C84.7185 111.857 87.4019 106.897 91.6859 103.317C95.5872 100.055 100.373 98.2587 105.163 98.2587C109.982 98.2587 114.228 100.074 117.119 103.373C117.208 103.474 117.292 103.574 117.374 103.677C117.752 104.132 118.111 104.624 118.435 105.13C118.998 106.012 119.467 106.978 119.828 108C120.008 108.504 120.16 109.029 120.279 109.561C120.925 112.35 120.771 115.383 119.833 118.332C119.686 118.794 119.52 119.254 119.341 119.7C118.951 120.668 118.473 121.622 117.917 122.542C117.635 123.006 117.355 123.435 117.056 123.855C115.992 125.356 114.716 126.73 113.265 127.943C109.363 131.203 104.578 133 99.7872 133ZM105.163 99.3087C100.62 99.3087 96.0725 101.019 92.3602 104.122C88.2909 107.522 85.7429 112.219 85.3742 117.005C85.0756 120.85 86.2306 124.467 88.6222 127.192C91.3102 130.26 95.2769 131.95 99.7872 131.95C104.33 131.95 108.878 130.239 112.59 127.136C113.974 125.981 115.187 124.672 116.2 123.246C116.482 122.847 116.751 122.441 117.019 121.998C117.544 121.128 117.997 120.222 118.368 119.305C118.538 118.885 118.694 118.451 118.832 118.015C119.712 115.245 119.859 112.403 119.254 109.795C119.145 109.302 119.005 108.817 118.839 108.353C118.503 107.403 118.069 106.509 117.551 105.695C117.252 105.226 116.919 104.769 116.562 104.339C116.485 104.244 116.41 104.155 116.333 104.066C113.64 100.998 109.674 99.3087 105.163 99.3087Z" fill="#F9FAFB"/>
<path d="M100.426 112.149C100.38 112.016 100.321 111.89 100.242 111.771C100.193 111.69 100.135 111.613 100.069 111.538C99.6751 111.09 99.1011 110.864 98.4897 110.864C98.4407 110.864 98.3917 110.866 98.3404 110.868C97.7734 110.901 97.1877 111.125 96.6931 111.538C96.0677 112.061 95.7271 112.772 95.7084 113.454C95.6944 113.944 95.8461 114.417 96.1751 114.793C96.5694 115.241 97.1434 115.467 97.7547 115.467C98.3661 115.467 99.0124 115.243 99.5491 114.793C99.8034 114.578 100.013 114.336 100.172 114.072C100.247 113.951 100.307 113.825 100.361 113.694C100.571 113.181 100.597 112.632 100.426 112.149Z" fill="#F7F9FC"/>
<path d="M98.5157 108.012C98.434 107.779 98.3244 107.557 98.1914 107.347C98.1004 107.205 98.0024 107.07 97.888 106.939C97.1927 106.146 96.1777 105.749 95.102 105.749C94.1197 105.749 93.0884 106.078 92.1947 106.736C92.1084 106.801 92.022 106.867 91.938 106.937C90.041 108.519 89.6327 111.09 91.0234 112.674C91.0864 112.744 91.1494 112.812 91.217 112.875C91.8984 113.533 92.8271 113.86 93.8094 113.86C94.4394 113.86 95.0927 113.724 95.7157 113.454C96.1567 113.262 96.5814 113.001 96.9757 112.674C97.4237 112.296 97.7924 111.867 98.07 111.405C98.175 111.23 98.2684 111.05 98.3454 110.868C98.3641 110.824 98.3827 110.782 98.399 110.738C98.7677 109.83 98.812 108.864 98.5157 108.012Z" fill="#F7F9FC"/>
<path d="M176.034 176.962H86.548L81.9863 170.744H170.574L176.034 176.962Z" fill="#D0D5DD"/>
<path d="M176.033 177.487H86.5501C86.3821 177.487 86.2257 177.408 86.1277 177.273L81.5637 171.054C81.4471 170.896 81.4284 170.683 81.5194 170.506C81.6081 170.329 81.7901 170.219 81.9884 170.219H170.576C170.727 170.219 170.87 170.284 170.97 170.399L176.43 176.617C176.565 176.771 176.598 176.993 176.514 177.179C176.425 177.368 176.239 177.487 176.033 177.487ZM86.8137 176.437H174.871L170.333 171.269H83.0197L86.8137 176.437Z" fill="#F9FAFB"/>
<path d="M165.001 105.462C165.792 105.462 166.331 106.078 166.21 106.841C166.088 107.599 165.351 108.215 164.562 108.215H128.853C128.708 107.284 128.503 106.36 128.239 105.462H165.001Z" fill="#D0D5DD"/>
<path d="M164.563 108.74H128.853C128.594 108.74 128.375 108.551 128.335 108.294C128.195 107.387 127.995 106.484 127.736 105.609C127.689 105.45 127.719 105.277 127.82 105.147C127.918 105.014 128.074 104.937 128.24 104.937H165.004C165.54 104.937 166.035 105.156 166.359 105.536C166.681 105.914 166.814 106.407 166.73 106.922C166.567 107.942 165.615 108.74 164.563 108.74ZM129.299 107.69H164.563C165.095 107.69 165.613 107.263 165.692 106.757C165.725 106.549 165.678 106.358 165.559 106.218C165.433 106.068 165.235 105.987 165.001 105.987H128.928C129.075 106.549 129.199 107.118 129.299 107.69Z" fill="#D0D5DD"/>
<path d="M167.239 91.4407C168.03 91.4407 168.569 92.0567 168.448 92.8197C168.327 93.578 167.589 94.194 166.801 94.194H129.26C128.471 94.194 127.932 93.578 128.053 92.8197C128.175 92.059 128.91 91.4407 129.698 91.4407H167.239Z" fill="#D0D5DD"/>
<path d="M166.8 94.7192H129.259C128.723 94.7192 128.23 94.5022 127.906 94.1219C127.584 93.7439 127.453 93.2539 127.535 92.7382C127.698 91.7186 128.648 90.9182 129.698 90.9182H167.239C167.776 90.9182 168.27 91.1375 168.595 91.5179C168.917 91.8959 169.05 92.3882 168.966 92.9039C168.805 93.9212 167.853 94.7192 166.8 94.7192ZM129.698 91.9659C129.168 91.9659 128.653 92.3952 128.571 92.9015C128.538 93.1092 128.585 93.3005 128.704 93.4405C128.83 93.5875 129.026 93.6692 129.259 93.6692H166.8C167.332 93.6692 167.85 93.2422 167.93 92.7359C167.962 92.5282 167.916 92.3369 167.797 92.1969C167.671 92.0475 167.472 91.9659 167.239 91.9659H129.698Z" fill="#D0D5DD"/>
<path d="M158.293 147.53C159.084 147.53 159.623 148.146 159.502 148.904C159.381 149.665 158.643 150.283 157.852 150.283H102.475C101.689 150.283 101.148 149.667 101.269 148.904C101.39 148.146 102.128 147.53 102.914 147.53H158.293Z" fill="#D0D5DD"/>
<path d="M157.854 150.808H102.475C101.941 150.808 101.448 150.591 101.124 150.21C100.802 149.832 100.669 149.34 100.753 148.822C100.916 147.802 101.866 147.004 102.916 147.004H158.293C158.83 147.004 159.324 147.224 159.649 147.604C159.971 147.982 160.101 148.472 160.02 148.988C159.859 150.007 158.907 150.808 157.854 150.808ZM102.914 148.054C102.384 148.054 101.868 148.481 101.787 148.988C101.754 149.195 101.801 149.389 101.92 149.529C102.046 149.678 102.242 149.76 102.473 149.76H157.852C158.384 149.76 158.902 149.331 158.981 148.824C159.014 148.619 158.967 148.428 158.848 148.288C158.722 148.138 158.524 148.057 158.291 148.057H102.914V148.054Z" fill="#D0D5DD"/>
<path d="M134.738 116.237C134.696 115.969 134.649 115.701 134.598 115.435C134.593 115.409 134.589 115.383 134.584 115.358C134.575 115.309 134.561 115.26 134.551 115.208C134.507 114.991 134.458 114.774 134.407 114.56C134.388 114.48 134.369 114.399 134.348 114.319C134.278 114.039 134.204 113.762 134.124 113.486C134.015 113.111 133.889 112.74 133.758 112.371C133.742 112.324 133.73 112.278 133.711 112.231C133.695 112.182 133.672 112.135 133.655 112.089C133.532 111.753 133.401 111.421 133.259 111.092C133.247 111.062 133.235 111.034 133.221 111.004C133.067 110.651 132.899 110.304 132.727 109.958C132.706 109.919 132.689 109.879 132.671 109.839C132.643 109.783 132.608 109.727 132.58 109.671C132.461 109.445 132.337 109.223 132.211 108.999C132.157 108.908 132.108 108.815 132.052 108.724C131.873 108.421 131.686 108.12 131.488 107.823C131.488 107.821 131.485 107.821 131.485 107.819C131.32 107.571 131.149 107.326 130.972 107.084L125.087 99.0618C125.267 99.3044 125.437 99.5518 125.605 99.8014C125.804 100.098 125.99 100.399 126.17 100.702C126.224 100.793 126.275 100.886 126.329 100.977C126.455 101.199 126.578 101.423 126.697 101.647C126.749 101.743 126.798 101.838 126.847 101.934C127.022 102.279 127.187 102.627 127.341 102.979C127.353 103.007 127.365 103.038 127.376 103.068C127.519 103.397 127.649 103.728 127.773 104.064C127.808 104.158 127.843 104.253 127.876 104.347C128.006 104.715 128.13 105.086 128.24 105.462C128.321 105.737 128.394 106.015 128.464 106.295C128.485 106.377 128.503 106.456 128.522 106.538C128.573 106.752 128.62 106.967 128.664 107.184C128.681 107.261 128.697 107.336 128.711 107.413C128.762 107.679 128.811 107.947 128.851 108.215C129.42 111.872 129.087 115.731 127.892 119.485C127.6 120.412 127.25 121.331 126.854 122.239C126.772 122.425 126.686 122.61 126.602 122.794C126.534 122.939 126.466 123.083 126.396 123.228C126.338 123.347 126.28 123.468 126.221 123.587C126.149 123.732 126.074 123.874 126 124.019C125.939 124.138 125.876 124.255 125.813 124.371C125.736 124.516 125.657 124.658 125.575 124.803C125.51 124.92 125.444 125.034 125.379 125.151C125.295 125.293 125.211 125.438 125.125 125.58C125.062 125.685 125.001 125.788 124.936 125.893C124.712 126.254 124.481 126.614 124.24 126.968C124.194 127.038 124.145 127.108 124.096 127.181C123.848 127.542 123.592 127.899 123.326 128.254C123.293 128.296 123.26 128.338 123.23 128.378C123.018 128.655 122.801 128.931 122.579 129.204C122.518 129.278 122.458 129.353 122.395 129.43C122.143 129.733 121.884 130.037 121.618 130.333C121.576 130.38 121.534 130.424 121.492 130.471C121.275 130.711 121.053 130.947 120.827 131.182C120.752 131.262 120.675 131.339 120.598 131.416C120.36 131.658 120.115 131.901 119.868 132.137C119.833 132.172 119.798 132.207 119.763 132.239C119.613 132.379 119.462 132.517 119.31 132.657C119.228 132.732 119.147 132.809 119.063 132.883C118.825 133.096 118.584 133.303 118.339 133.511C118.034 133.768 117.73 134.01 117.429 134.246C117.408 134.262 117.387 134.279 117.366 134.295C117.084 134.514 116.804 134.724 116.524 134.93C116.477 134.965 116.428 135 116.382 135.035C116.13 135.217 115.878 135.394 115.626 135.564C115.273 135.805 114.919 136.038 114.564 136.262C114.214 136.481 113.862 136.691 113.505 136.894C113.411 136.948 113.318 136.997 113.225 137.051C112.912 137.226 112.599 137.396 112.284 137.559C112.165 137.62 112.046 137.683 111.927 137.744C111.582 137.919 111.234 138.084 110.884 138.245C110.821 138.273 110.761 138.304 110.698 138.332C110.616 138.369 110.532 138.404 110.45 138.439C110.222 138.539 109.993 138.64 109.762 138.733C109.648 138.78 109.533 138.824 109.419 138.871C109.218 138.95 109.015 139.029 108.815 139.106C108.693 139.153 108.57 139.197 108.448 139.242C108.25 139.314 108.052 139.382 107.853 139.449C107.732 139.491 107.611 139.531 107.487 139.571C107.324 139.624 107.158 139.673 106.995 139.725C106.794 139.785 106.591 139.846 106.39 139.904C106.234 139.949 106.078 139.991 105.919 140.033C105.718 140.086 105.52 140.138 105.319 140.187C105.161 140.226 105.002 140.264 104.846 140.299C104.645 140.345 104.444 140.387 104.244 140.429C104.087 140.462 103.929 140.495 103.772 140.523C103.569 140.56 103.366 140.597 103.163 140.63C103.009 140.656 102.853 140.681 102.699 140.705C102.491 140.735 102.284 140.763 102.078 140.791C101.929 140.81 101.777 140.831 101.628 140.849C101.411 140.875 101.196 140.894 100.982 140.912C100.842 140.924 100.699 140.94 100.559 140.95C100.321 140.968 100.086 140.98 99.8498 140.992C99.7308 140.999 99.6142 141.006 99.4952 141.01C99.1405 141.024 98.7882 141.031 98.4358 141.031C94.4202 141.031 90.5445 140.152 87.1449 138.392C86.0342 137.818 84.9748 137.149 83.9785 136.386L89.8632 144.408C90.8595 145.171 91.9189 145.838 93.0295 146.414C96.4269 148.174 100.305 149.053 104.318 149.053C104.671 149.053 105.023 149.046 105.378 149.032C105.497 149.028 105.613 149.018 105.732 149.014C105.968 149.002 106.206 148.99 106.442 148.972C106.582 148.96 106.722 148.946 106.862 148.934C107.079 148.916 107.293 148.895 107.51 148.871C107.66 148.855 107.809 148.834 107.958 148.815C108.166 148.787 108.374 148.762 108.581 148.729C108.735 148.706 108.892 148.68 109.046 148.654C109.249 148.619 109.452 148.584 109.655 148.547C109.811 148.517 109.97 148.486 110.126 148.454C110.327 148.412 110.527 148.37 110.728 148.323C110.887 148.288 111.043 148.251 111.199 148.211C111.4 148.162 111.601 148.111 111.801 148.057C111.958 148.015 112.114 147.973 112.27 147.929C112.473 147.87 112.674 147.81 112.877 147.749C112.977 147.719 113.08 147.691 113.18 147.66C113.243 147.639 113.306 147.618 113.369 147.597C113.491 147.558 113.612 147.516 113.736 147.476C113.934 147.408 114.132 147.341 114.331 147.268C114.452 147.224 114.576 147.18 114.697 147.133C114.9 147.058 115.101 146.979 115.301 146.897C115.416 146.851 115.53 146.806 115.644 146.76C115.875 146.664 116.104 146.566 116.333 146.466C116.414 146.428 116.498 146.396 116.58 146.358C116.594 146.351 116.61 146.344 116.624 146.34C116.671 146.319 116.718 146.293 116.764 146.272C117.114 146.111 117.462 145.945 117.807 145.77C117.926 145.71 118.045 145.649 118.164 145.586C118.479 145.423 118.794 145.252 119.105 145.077C119.172 145.04 119.24 145.007 119.305 144.968C119.331 144.954 119.359 144.935 119.385 144.921C119.739 144.718 120.094 144.508 120.444 144.289C120.801 144.065 121.153 143.831 121.506 143.591C121.538 143.57 121.569 143.549 121.601 143.528C121.821 143.376 122.042 143.22 122.262 143.061C122.308 143.026 122.357 142.991 122.404 142.956C122.684 142.751 122.964 142.541 123.244 142.322C123.265 142.305 123.286 142.289 123.307 142.273C123.456 142.156 123.608 142.037 123.757 141.913C123.909 141.79 124.063 141.664 124.215 141.535C124.46 141.328 124.7 141.12 124.938 140.908C125.022 140.833 125.101 140.758 125.183 140.684C125.335 140.544 125.489 140.406 125.638 140.264C125.645 140.257 125.654 140.25 125.661 140.243C125.689 140.217 125.715 140.189 125.741 140.163C125.99 139.925 126.233 139.683 126.473 139.44C126.55 139.363 126.625 139.284 126.7 139.207C126.926 138.971 127.148 138.735 127.365 138.495C127.397 138.46 127.432 138.425 127.463 138.39C127.472 138.381 127.479 138.369 127.488 138.36C127.754 138.061 128.013 137.76 128.265 137.457C128.328 137.382 128.389 137.307 128.45 137.233C128.671 136.96 128.891 136.684 129.101 136.407C129.124 136.374 129.152 136.344 129.175 136.311C129.182 136.302 129.189 136.292 129.196 136.283C129.462 135.928 129.719 135.571 129.966 135.21C130.015 135.14 130.062 135.07 130.111 135C130.351 134.643 130.585 134.283 130.809 133.922C130.823 133.898 130.839 133.877 130.853 133.854C130.902 133.772 130.949 133.691 130.998 133.609C131.084 133.467 131.168 133.324 131.252 133.18C131.32 133.063 131.383 132.946 131.448 132.832C131.527 132.69 131.607 132.547 131.684 132.403C131.747 132.286 131.81 132.167 131.87 132.048C131.945 131.906 132.02 131.761 132.09 131.616C132.15 131.497 132.209 131.378 132.267 131.257C132.337 131.112 132.405 130.968 132.472 130.823C132.5 130.76 132.533 130.699 132.561 130.636C132.617 130.513 132.671 130.391 132.724 130.268C133.123 129.36 133.471 128.441 133.763 127.514C134.974 123.755 135.307 119.896 134.738 116.237Z" fill="#D0D5DD"/>
<path d="M104.318 149.578C100.184 149.578 96.1983 148.645 92.787 146.879C91.6413 146.286 90.5517 145.595 89.5413 144.823C89.5017 144.793 89.4667 144.758 89.4363 144.716L83.5517 136.694C83.3977 136.484 83.421 136.192 83.6077 136.008C83.7943 135.826 84.086 135.807 84.2937 135.966C85.2527 136.701 86.291 137.359 87.383 137.923C90.645 139.613 94.4647 140.504 98.4313 140.504C98.7603 140.504 99.1103 140.497 99.4697 140.483C99.5373 140.481 99.6027 140.476 99.6703 140.471L99.8173 140.462C100.051 140.45 100.282 140.439 100.515 140.42C100.606 140.413 100.697 140.404 100.786 140.397L100.928 140.383C101.145 140.364 101.355 140.343 101.563 140.32C101.672 140.308 101.782 140.292 101.892 140.278L102.006 140.264C102.209 140.238 102.412 140.21 102.617 140.18C102.753 140.159 102.89 140.135 103.026 140.112L103.072 140.105C103.271 140.072 103.471 140.037 103.67 140C103.824 139.97 103.978 139.939 104.134 139.907C104.33 139.867 104.528 139.823 104.724 139.778C104.881 139.743 105.035 139.706 105.191 139.669C105.387 139.62 105.585 139.571 105.781 139.517C105.935 139.475 106.089 139.435 106.243 139.391C106.442 139.335 106.64 139.274 106.838 139.214L106.904 139.193C107.044 139.151 107.184 139.106 107.321 139.062C107.443 139.022 107.562 138.983 107.681 138.943C107.877 138.878 108.07 138.81 108.266 138.738C108.385 138.693 108.507 138.651 108.626 138.605C108.824 138.53 109.022 138.453 109.221 138.374L109.312 138.339C109.393 138.306 109.477 138.273 109.559 138.241C109.785 138.147 110.009 138.049 110.236 137.951L110.343 137.905C110.387 137.886 110.434 137.865 110.478 137.846L110.66 137.76C110.996 137.606 111.342 137.44 111.685 137.268C111.801 137.209 111.92 137.149 112.037 137.088C112.345 136.929 112.655 136.761 112.963 136.589L113.078 136.526C113.131 136.495 113.185 136.467 113.239 136.437C113.621 136.218 113.962 136.015 114.279 135.814C114.604 135.611 114.944 135.387 115.325 135.128C115.572 134.958 115.822 134.785 116.069 134.605L116.209 134.503C116.512 134.281 116.783 134.076 117.037 133.877L117.1 133.826C117.415 133.579 117.709 133.341 117.994 133.103C118.234 132.9 118.47 132.694 118.703 132.487C118.752 132.442 118.799 132.398 118.848 132.354L119.007 132.209C119.135 132.092 119.266 131.973 119.392 131.854L119.497 131.754C119.732 131.528 119.968 131.297 120.218 131.042C120.292 130.965 120.367 130.888 120.442 130.811C120.663 130.58 120.883 130.347 121.095 130.111L121.219 129.978C121.466 129.703 121.716 129.411 121.984 129.089L122.166 128.868C122.397 128.585 122.607 128.319 122.805 128.056L122.901 127.934C123.144 127.612 123.391 127.267 123.657 126.88L123.799 126.672C124.042 126.315 124.271 125.958 124.483 125.615C124.537 125.526 124.59 125.438 124.644 125.349L124.667 125.309C124.751 125.169 124.835 125.029 124.917 124.887C124.975 124.787 125.031 124.686 125.087 124.586L125.111 124.544C125.19 124.404 125.267 124.262 125.344 124.122C125.407 124.007 125.468 123.891 125.528 123.774C125.601 123.634 125.673 123.492 125.745 123.352C125.804 123.235 125.862 123.118 125.918 122.999C125.986 122.857 126.053 122.717 126.119 122.575L126.14 122.526C126.217 122.36 126.294 122.194 126.366 122.029C126.76 121.128 127.106 120.22 127.386 119.327C128.555 115.659 128.879 111.846 128.326 108.297C128.289 108.054 128.244 107.798 128.188 107.513L128.142 107.289C128.097 107.077 128.053 106.867 128.002 106.657L127.943 106.419C127.866 106.108 127.796 105.849 127.724 105.609C127.628 105.285 127.516 104.939 127.367 104.519C127.334 104.428 127.302 104.335 127.267 104.244C127.134 103.887 127.008 103.57 126.879 103.273L126.844 103.187C126.709 102.877 126.553 102.545 126.361 102.17C126.315 102.076 126.266 101.983 126.217 101.89C126.1 101.67 125.981 101.453 125.857 101.236L125.808 101.152C125.773 101.092 125.738 101.029 125.701 100.968C125.505 100.639 125.325 100.352 125.15 100.091C124.987 99.8457 124.817 99.603 124.646 99.3697C124.476 99.1363 124.525 98.8073 124.758 98.637C124.992 98.4667 125.321 98.5157 125.491 98.749L125.493 98.7513L131.376 106.771C131.555 107.016 131.733 107.27 131.903 107.525C131.905 107.529 131.908 107.534 131.912 107.539C132.097 107.816 132.283 108.115 132.486 108.453C132.526 108.519 132.561 108.584 132.598 108.647L132.647 108.733C132.778 108.962 132.904 109.191 133.025 109.422L133.058 109.482C133.079 109.52 133.1 109.557 133.119 109.594C133.133 109.62 133.144 109.648 133.156 109.674L133.175 109.716C133.373 110.108 133.539 110.458 133.683 110.789L133.721 110.878C133.858 111.2 133.991 111.533 134.129 111.902L134.148 111.951C134.162 111.984 134.176 112.016 134.187 112.051C134.199 112.082 134.208 112.114 134.218 112.147L134.234 112.196C134.388 112.628 134.507 112.992 134.607 113.337C134.682 113.591 134.754 113.862 134.838 114.189C134.855 114.252 134.869 114.317 134.885 114.38L134.899 114.436C134.953 114.658 135.002 114.879 135.046 115.101L135.06 115.159C135.067 115.19 135.074 115.22 135.081 115.253L135.095 115.334C135.153 115.638 135.2 115.906 135.24 116.158C135.816 119.868 135.48 123.846 134.262 127.666C133.97 128.59 133.613 129.535 133.203 130.471C133.149 130.594 133.093 130.72 133.037 130.844C133.018 130.884 133.002 130.921 132.983 130.958L132.946 131.035C132.878 131.182 132.808 131.329 132.738 131.474C132.68 131.598 132.619 131.719 132.559 131.84C132.486 131.987 132.412 132.132 132.335 132.279C132.272 132.4 132.209 132.519 132.143 132.641C132.064 132.788 131.985 132.932 131.903 133.077L131.868 133.14C131.814 133.238 131.758 133.336 131.702 133.432C131.618 133.579 131.532 133.723 131.443 133.868L131.383 133.968C131.355 134.017 131.324 134.066 131.296 134.115L131.264 134.167C131.03 134.542 130.792 134.911 130.543 135.28L130.396 135.492C130.118 135.896 129.861 136.253 129.612 136.584L129.514 136.712C129.308 136.981 129.087 137.265 128.851 137.552L128.828 137.583C128.774 137.648 128.72 137.716 128.664 137.781C128.387 138.115 128.13 138.416 127.873 138.7L127.845 138.733C127.827 138.754 127.806 138.777 127.785 138.798L127.745 138.84C127.523 139.083 127.299 139.323 127.071 139.561C126.994 139.641 126.917 139.72 126.84 139.799C126.581 140.063 126.336 140.303 126.095 140.534L126.067 140.562C126.049 140.581 126.032 140.597 126.014 140.616C126.011 140.618 125.995 140.632 125.993 140.635C125.862 140.758 125.729 140.88 125.596 141.001L125.435 141.15C125.384 141.197 125.332 141.246 125.279 141.293C125.038 141.507 124.793 141.72 124.544 141.93C124.387 142.06 124.233 142.189 124.079 142.312C123.925 142.436 123.774 142.557 123.622 142.676L123.559 142.728C123.293 142.935 123.013 143.148 122.705 143.372L122.56 143.479C122.336 143.64 122.112 143.801 121.888 143.955C121.867 143.969 121.846 143.983 121.825 143.997L121.79 144.02C121.401 144.286 121.046 144.517 120.71 144.73C120.376 144.94 120.024 145.15 119.634 145.374L119.553 145.423C119.513 145.446 119.471 145.467 119.431 145.488C119.403 145.502 119.375 145.516 119.35 145.532C119.03 145.712 118.708 145.885 118.393 146.048C118.272 146.111 118.15 146.174 118.029 146.235C117.672 146.414 117.315 146.585 116.97 146.743L116.916 146.769C116.886 146.783 116.855 146.799 116.825 146.811L116.792 146.825C116.729 146.853 116.678 146.876 116.627 146.897L116.529 146.939C116.295 147.042 116.062 147.142 115.829 147.238C115.747 147.273 115.663 147.306 115.579 147.338L115.481 147.378C115.276 147.46 115.07 147.539 114.865 147.616C114.741 147.663 114.618 147.707 114.494 147.754C114.293 147.826 114.09 147.896 113.89 147.966C113.761 148.008 113.64 148.05 113.519 148.09L113.439 148.115C113.402 148.129 113.362 148.141 113.325 148.153C113.264 148.171 113.204 148.19 113.141 148.206L113.017 148.244C112.812 148.307 112.606 148.367 112.401 148.426C112.242 148.47 112.084 148.514 111.925 148.556C111.72 148.61 111.517 148.664 111.311 148.713C111.153 148.752 110.992 148.79 110.831 148.827C110.625 148.874 110.422 148.918 110.217 148.96C110.056 148.993 109.897 149.025 109.736 149.056C109.531 149.095 109.323 149.13 109.116 149.165L109.062 149.175C108.922 149.198 108.784 149.221 108.644 149.242C108.432 149.275 108.222 149.303 108.01 149.329L107.895 149.343C107.781 149.357 107.667 149.373 107.555 149.385C107.335 149.41 107.116 149.429 106.897 149.45L106.757 149.464C106.659 149.473 106.563 149.483 106.465 149.49C106.222 149.508 105.982 149.52 105.742 149.532L105.606 149.539C105.532 149.543 105.457 149.548 105.382 149.55C105.025 149.571 104.661 149.578 104.318 149.578ZM90.2413 144.034C91.184 144.751 92.2037 145.392 93.2723 145.945C96.5343 147.635 100.354 148.526 104.321 148.526C104.65 148.526 105 148.519 105.359 148.505C105.427 148.503 105.494 148.498 105.562 148.493L105.707 148.484C105.94 148.472 106.171 148.461 106.404 148.442C106.495 148.435 106.586 148.426 106.677 148.419L106.82 148.405C107.034 148.386 107.244 148.365 107.457 148.342C107.564 148.33 107.671 148.316 107.781 148.302L107.898 148.286C108.101 148.26 108.306 148.232 108.509 148.202C108.642 148.181 108.777 148.16 108.91 148.136L108.964 148.127C109.165 148.094 109.363 148.059 109.561 148.022C109.715 147.992 109.869 147.961 110.026 147.929C110.224 147.889 110.42 147.845 110.618 147.8C110.772 147.765 110.929 147.728 111.083 147.691C111.281 147.642 111.477 147.59 111.675 147.539C111.829 147.497 111.983 147.457 112.135 147.413C112.333 147.357 112.532 147.296 112.73 147.236L112.87 147.194C112.924 147.177 112.975 147.163 113.026 147.147L113.213 147.084C113.33 147.047 113.449 147.007 113.565 146.967C113.766 146.9 113.962 146.832 114.156 146.762C114.275 146.718 114.396 146.676 114.515 146.629C114.713 146.554 114.912 146.477 115.11 146.398L115.21 146.358C115.29 146.328 115.367 146.295 115.446 146.265C115.672 146.172 115.899 146.074 116.123 145.976L116.23 145.929C116.277 145.91 116.321 145.889 116.365 145.871L116.468 145.824C116.496 145.81 116.522 145.798 116.55 145.784C116.883 145.63 117.229 145.465 117.576 145.292C117.695 145.234 117.812 145.173 117.929 145.112C118.234 144.954 118.545 144.786 118.855 144.613C118.89 144.594 118.925 144.576 118.96 144.557C118.99 144.541 119.021 144.524 119.051 144.508L119.128 144.461C119.508 144.244 119.849 144.039 120.171 143.838C120.495 143.635 120.838 143.411 121.216 143.152L121.31 143.092C121.527 142.942 121.744 142.788 121.961 142.632L122.103 142.527C122.402 142.308 122.672 142.105 122.929 141.902L122.992 141.85C123.137 141.736 123.286 141.619 123.435 141.498C123.585 141.377 123.736 141.253 123.886 141.127C124.126 140.924 124.362 140.719 124.595 140.511C124.644 140.469 124.691 140.425 124.735 140.383L124.903 140.229C125.029 140.112 125.157 139.998 125.281 139.879C125.283 139.876 125.295 139.865 125.3 139.862L125.386 139.778C125.619 139.557 125.855 139.323 126.107 139.067C126.182 138.99 126.256 138.913 126.331 138.836C126.553 138.605 126.772 138.371 126.984 138.136L127.108 138C127.353 137.725 127.605 137.436 127.873 137.111C127.927 137.048 127.978 136.985 128.03 136.92L128.055 136.89C128.282 136.612 128.499 136.337 128.697 136.078L128.793 135.954C129.033 135.637 129.28 135.291 129.549 134.902L129.689 134.696C129.931 134.339 130.16 133.982 130.375 133.637L130.417 133.572C130.442 133.53 130.468 133.485 130.494 133.441L130.559 133.331C130.643 133.191 130.727 133.051 130.809 132.911C130.862 132.818 130.916 132.725 130.967 132.629L131.002 132.566C131.079 132.426 131.159 132.286 131.233 132.146C131.296 132.029 131.357 131.915 131.418 131.798C131.49 131.658 131.562 131.518 131.632 131.376C131.691 131.257 131.749 131.14 131.807 131.021C131.875 130.881 131.943 130.739 132.008 130.597L132.097 130.412C132.15 130.293 132.204 130.174 132.258 130.053C132.654 129.15 132.997 128.242 133.277 127.351C134.446 123.683 134.771 119.87 134.218 116.321C134.18 116.083 134.136 115.829 134.08 115.54L134.036 115.318C133.991 115.106 133.945 114.896 133.896 114.686L133.882 114.627C133.868 114.569 133.854 114.508 133.84 114.45C133.76 114.137 133.69 113.878 133.62 113.638C133.525 113.309 133.41 112.964 133.263 112.551C133.254 112.52 133.245 112.495 133.235 112.467C133.231 112.45 133.224 112.432 133.219 112.415C133.212 112.397 133.205 112.38 133.198 112.364C133.186 112.336 133.175 112.306 133.163 112.278C133.032 111.928 132.906 111.608 132.776 111.307L132.741 111.221C132.605 110.908 132.447 110.574 132.258 110.201C132.246 110.178 132.232 110.15 132.22 110.124L132.202 110.082C132.19 110.059 132.176 110.033 132.162 110.01C132.146 109.982 132.129 109.951 132.113 109.921C131.996 109.699 131.877 109.482 131.754 109.265L131.702 109.174C131.67 109.116 131.635 109.055 131.6 108.997C131.404 108.668 131.224 108.379 131.049 108.12C131.047 108.117 131.044 108.113 131.042 108.108C130.881 107.868 130.713 107.63 130.545 107.399L128.536 104.659C128.615 104.895 128.683 105.112 128.744 105.32C128.818 105.574 128.893 105.845 128.975 106.171L129.035 106.419C129.087 106.64 129.136 106.86 129.182 107.081L129.231 107.315C129.29 107.613 129.336 107.882 129.376 108.138C129.952 111.848 129.614 115.827 128.398 119.646C128.107 120.573 127.75 121.518 127.339 122.451C127.264 122.624 127.183 122.796 127.103 122.969L127.082 123.016C127.015 123.163 126.945 123.31 126.875 123.457C126.816 123.578 126.756 123.699 126.695 123.823C126.62 123.97 126.546 124.117 126.471 124.262C126.408 124.381 126.345 124.502 126.282 124.621C126.203 124.768 126.121 124.913 126.039 125.06L126.016 125.102C125.958 125.207 125.899 125.309 125.839 125.414C125.755 125.561 125.668 125.706 125.58 125.851L125.556 125.89C125.5 125.984 125.444 126.077 125.388 126.168C125.169 126.525 124.931 126.894 124.679 127.265L124.532 127.479C124.257 127.881 124 128.238 123.748 128.571L123.65 128.697C123.442 128.97 123.225 129.246 122.987 129.537L122.798 129.766C122.523 130.1 122.264 130.398 122.007 130.683L121.879 130.821C121.657 131.063 121.433 131.304 121.202 131.544C121.125 131.623 121.048 131.703 120.971 131.782C120.715 132.043 120.472 132.284 120.227 132.517L120.12 132.622C119.989 132.746 119.856 132.867 119.721 132.991L119.569 133.131C119.515 133.18 119.464 133.229 119.41 133.275C119.17 133.49 118.925 133.702 118.675 133.912C118.379 134.16 118.078 134.405 117.751 134.659L117.688 134.71C117.425 134.916 117.145 135.128 116.834 135.354L116.69 135.462C116.433 135.648 116.176 135.826 115.922 136.001C115.532 136.267 115.178 136.498 114.842 136.71C114.51 136.918 114.158 137.128 113.766 137.354C113.708 137.387 113.649 137.419 113.589 137.452L113.481 137.513C113.164 137.69 112.842 137.865 112.525 138.028C112.403 138.091 112.282 138.154 112.161 138.215C111.804 138.395 111.449 138.565 111.101 138.724L111.02 138.761C110.985 138.777 110.947 138.796 110.912 138.812C110.861 138.836 110.81 138.857 110.758 138.88L110.658 138.922C110.425 139.025 110.191 139.125 109.958 139.221C109.872 139.256 109.785 139.291 109.697 139.326L109.608 139.361C109.403 139.442 109.2 139.522 108.992 139.599C108.868 139.645 108.745 139.69 108.619 139.736C108.418 139.809 108.215 139.879 108.014 139.946C107.891 139.988 107.767 140.03 107.643 140.07C107.499 140.117 107.352 140.161 107.207 140.205L107.142 140.224C106.936 140.287 106.731 140.348 106.526 140.406C106.367 140.45 106.206 140.495 106.047 140.537C105.844 140.59 105.641 140.644 105.436 140.693C105.275 140.733 105.114 140.77 104.953 140.807C104.75 140.854 104.545 140.898 104.342 140.94C104.183 140.973 104.022 141.006 103.861 141.036C103.653 141.076 103.448 141.111 103.24 141.146L103.194 141.153C103.051 141.176 102.909 141.199 102.767 141.223C102.554 141.255 102.344 141.283 102.134 141.309L102.022 141.323C101.906 141.339 101.791 141.353 101.677 141.367C101.46 141.393 101.243 141.412 101.026 141.433L100.881 141.447C100.783 141.456 100.685 141.465 100.59 141.472C100.349 141.491 100.109 141.503 99.8687 141.514L99.731 141.521C99.6563 141.526 99.5817 141.531 99.507 141.533C99.1337 141.547 98.772 141.554 98.429 141.554C94.2943 141.554 90.309 140.621 86.8977 138.854C86.6387 138.721 86.3843 138.581 86.1323 138.439L90.2413 144.034Z" fill="#F9FAFB"/>
<path d="M203.016 151.263C204.934 151.263 206.488 149.708 206.488 147.791C206.488 145.873 204.934 144.319 203.016 144.319C201.099 144.319 199.544 145.873 199.544 147.791C199.544 149.708 201.099 151.263 203.016 151.263Z" fill="#F9FAFB"/>
<path d="M57.0106 138.453C58.9281 138.453 60.4826 136.898 60.4826 134.981C60.4826 133.063 58.9281 131.509 57.0106 131.509C55.093 131.509 53.5386 133.063 53.5386 134.981C53.5386 136.898 55.093 138.453 57.0106 138.453Z" fill="#F9FAFB"/>
<path d="M58.7485 141.26C59.4238 141.26 59.9712 140.712 59.9712 140.037C59.9712 139.362 59.4238 138.814 58.7485 138.814C58.0733 138.814 57.5259 139.362 57.5259 140.037C57.5259 140.712 58.0733 141.26 58.7485 141.26Z" fill="#F9FAFB"/>
<path d="M75.9637 94.7848C77.8812 94.7848 79.4357 93.2304 79.4357 91.3128C79.4357 89.3953 77.8812 87.8408 75.9637 87.8408C74.0462 87.8408 72.4917 89.3953 72.4917 91.3128C72.4917 93.2304 74.0462 94.7848 75.9637 94.7848Z" fill="#F9FAFB"/>
<path d="M80.022 89.054C80.6972 89.054 81.2447 88.5066 81.2447 87.8313C81.2447 87.1561 80.6972 86.6086 80.022 86.6086C79.3467 86.6086 78.7993 87.1561 78.7993 87.8313C78.7993 88.5066 79.3467 89.054 80.022 89.054Z" fill="#F9FAFB"/>
<path d="M211.932 76.5009C215.231 76.5009 217.905 73.8265 217.905 70.5275C217.905 67.2286 215.231 64.5542 211.932 64.5542C208.633 64.5542 205.958 67.2286 205.958 70.5275C205.958 73.8265 208.633 76.5009 211.932 76.5009Z" fill="#E4E7EC"/>
<path d="M205.959 67.5781C207.529 67.5781 208.803 66.3046 208.803 64.7337C208.803 63.1629 207.529 61.8894 205.959 61.8894C204.388 61.8894 203.114 63.1629 203.114 64.7337C203.114 66.3046 204.388 67.5781 205.959 67.5781Z" fill="#F9FAFB"/>
</svg>
