<svg width="20" height="20" viewBox="0 0 20 20" fill="none" xmlns="http://www.w3.org/2000/svg">
<path d="M4.16663 14.5833C4.16663 14.1231 4.53972 13.75 4.99996 13.75H10.8333C11.2935 13.75 11.6666 14.1231 11.6666 14.5833C11.6666 15.0436 11.2935 15.4167 10.8333 15.4167H4.99996C4.53972 15.4167 4.16663 15.0436 4.16663 14.5833Z" fill="#F0F2F5"/>
<path d="M13.3333 13.75C12.8731 13.75 12.5 14.1231 12.5 14.5833C12.5 15.0436 12.8731 15.4167 13.3333 15.4167H15C15.4602 15.4167 15.8333 15.0436 15.8333 14.5833C15.8333 14.1231 15.4602 13.75 15 13.75H13.3333Z" fill="#F0F2F5"/>
<path fill-rule="evenodd" clip-rule="evenodd" d="M6.66663 1.25C7.12686 1.25 7.49996 1.6231 7.49996 2.08333V2.91667H12.5V2.08333C12.5 1.6231 12.8731 1.25 13.3333 1.25C13.7935 1.25 14.1666 1.6231 14.1666 2.08333V2.91667H15C16.8409 2.91667 18.3333 4.40905 18.3333 6.25V15.4167C18.3333 17.2576 16.8409 18.75 15 18.75H4.99996C3.15901 18.75 1.66663 17.2576 1.66663 15.4167V6.25C1.66663 4.40905 3.15901 2.91667 4.99996 2.91667H5.83329V2.08333C5.83329 1.6231 6.20639 1.25 6.66663 1.25ZM12.5 4.58333C12.5 5.04357 12.8731 5.41667 13.3333 5.41667C13.7935 5.41667 14.1666 5.04357 14.1666 4.58333H15C15.9204 4.58333 16.6666 5.32953 16.6666 6.25V6.66667H3.33329V6.25C3.33329 5.32953 4.07948 4.58333 4.99996 4.58333H5.83329C5.83329 5.04357 6.20639 5.41667 6.66663 5.41667C7.12686 5.41667 7.49996 5.04357 7.49996 4.58333H12.5ZM16.6666 8.33333H3.33329V15.4167C3.33329 16.3371 4.07948 17.0833 4.99996 17.0833H15C15.9204 17.0833 16.6666 16.3371 16.6666 15.4167V8.33333Z" fill="#F0F2F5"/>
</svg>
