<svg width="25" height="24" viewBox="0 0 25 24" fill="none" xmlns="http://www.w3.org/2000/svg">
<g clip-path="url(#clip0_7972_8856)">
<path d="M18.8158 5.68433H6.18433V18.3158H18.8158V5.68433Z" fill="white"/>
<path d="M18.8158 23.9999L24.5001 18.3157L21.658 17.8308L18.8158 18.3157L18.2971 20.9154L18.8158 23.9999Z" fill="#EA4335"/>
<path d="M0.5 18.3157V22.1052C0.5 23.1521 1.34787 23.9999 2.39469 23.9999H6.18425L6.76784 21.1578L6.18425 18.3157L3.08741 17.8308L0.5 18.3157Z" fill="#188038"/>
<path d="M24.5001 5.68425V1.89469C24.5001 0.847875 23.6522 0 22.6054 0H18.8158C18.4701 1.40963 18.2972 2.447 18.2971 3.11212C18.2971 3.77719 18.47 4.63456 18.8158 5.68425C20.073 6.04425 21.0204 6.22425 21.658 6.22425C22.2955 6.22425 23.2429 6.04431 24.5001 5.68425Z" fill="#1967D2"/>
<path d="M24.4999 5.68433H18.8157V18.3158H24.4999V5.68433Z" fill="#FBBC04"/>
<path d="M18.8158 18.3157H6.18433V23.9999H18.8158V18.3157Z" fill="#34A853"/>
<path d="M18.8158 0H2.39478C1.34788 0 0.5 0.847875 0.5 1.89469V18.3158H6.18425V5.68425H18.8158V0Z" fill="#4285F4"/>
<path d="M8.77529 15.4834C8.30316 15.1645 7.97626 14.6987 7.79785 14.0828L8.89369 13.6313C8.99307 14.0102 9.16676 14.3039 9.41476 14.5123C9.66104 14.7207 9.96104 14.8234 10.3116 14.8234C10.6699 14.8234 10.9778 14.7144 11.2352 14.4965C11.4926 14.2786 11.6221 14.0007 11.6221 13.6645C11.6221 13.3202 11.4863 13.0391 11.2148 12.8213C10.9432 12.6034 10.6021 12.4945 10.1948 12.4945H9.56157V11.4098H10.13C10.4805 11.4098 10.7757 11.315 11.0157 11.1254C11.2557 10.9361 11.3757 10.677 11.3757 10.347C11.3757 10.0534 11.2684 9.81968 11.0537 9.64446C10.839 9.46914 10.5673 9.38074 10.2373 9.38074C9.91519 9.38074 9.65945 9.46605 9.46998 9.63808C9.28057 9.81061 9.13819 10.0285 9.05626 10.2713L7.97157 9.81968C8.1152 9.41233 8.37891 9.05233 8.76573 8.74127C9.15254 8.43021 9.64679 8.27393 10.2468 8.27393C10.6905 8.27393 11.09 8.35924 11.4437 8.53127C11.7973 8.70339 12.0752 8.9418 12.2757 9.24499C12.4764 9.54968 12.5757 9.89074 12.5757 10.2697C12.5757 10.6565 12.4826 10.9834 12.2964 11.2518C12.1101 11.5202 11.881 11.7254 11.6094 11.8691V11.9338C11.9601 12.0784 12.2647 12.3159 12.4905 12.6207C12.7194 12.9286 12.8348 13.2965 12.8348 13.7261C12.8348 14.1554 12.7257 14.5391 12.5079 14.8754C12.29 15.2118 11.9885 15.477 11.6063 15.6697C11.2226 15.8623 10.7916 15.9603 10.3132 15.9603C9.75891 15.9618 9.24741 15.8023 8.77529 15.4834ZM15.5062 10.0454L14.3031 10.9154L13.7015 10.0029L15.8599 8.44596H16.6872V15.7897H15.5062V10.0454Z" fill="#4285F4"/>
</g>
<defs>
<clipPath id="clip0_7972_8856">
<rect width="24" height="24" fill="white" transform="translate(0.5)"/>
</clipPath>
</defs>
</svg>
