<svg width="12" height="12" viewBox="0 0 12 12" fill="none" xmlns="http://www.w3.org/2000/svg">
<path d="M6.09758 3.84708C4.74892 3.84708 3.66109 4.93491 3.66109 6.28357C3.66109 7.63223 4.74892 8.72007 6.09758 8.72007C7.44624 8.72007 8.53408 7.63223 8.53408 6.28357C8.53408 4.93491 7.44624 3.84708 6.09758 3.84708ZM6.09758 7.86761C5.22604 7.86761 4.51354 7.15723 4.51354 6.28357C4.51354 5.40991 5.22392 4.69953 6.09758 4.69953C6.97124 4.69953 7.68162 5.40991 7.68162 6.28357C7.68162 7.15723 6.96912 7.86761 6.09758 7.86761ZM9.20205 3.74741C9.20205 4.06337 8.94758 4.31572 8.63374 4.31572C8.31778 4.31572 8.06544 4.06125 8.06544 3.74741C8.06544 3.43357 8.31991 3.17911 8.63374 3.17911C8.94758 3.17911 9.20205 3.43357 9.20205 3.74741ZM10.8158 4.3242C10.7797 3.56293 10.6058 2.8886 10.0481 2.33301C9.49256 1.77743 8.81823 1.60355 8.05696 1.56538C7.27236 1.52085 4.92069 1.52085 4.13609 1.56538C3.37694 1.60143 2.70261 1.77531 2.1449 2.33089C1.5872 2.88647 1.41544 3.5608 1.37727 4.32208C1.33274 5.10668 1.33274 7.45835 1.37727 8.24295C1.41332 9.00422 1.5872 9.67855 2.1449 10.2341C2.70261 10.7897 3.37482 10.9636 4.13609 11.0018C4.92069 11.0463 7.27236 11.0463 8.05696 11.0018C8.81823 10.9657 9.49256 10.7918 10.0481 10.2341C10.6037 9.67855 10.7776 9.00422 10.8158 8.24295C10.8603 7.45835 10.8603 5.1088 10.8158 4.3242ZM9.80216 9.0848C9.63676 9.50042 9.31656 9.82063 8.89881 9.98815C8.27325 10.2363 6.78888 10.179 6.09758 10.179C5.40629 10.179 3.91979 10.2341 3.29636 9.98815C2.88073 9.82275 2.56053 9.50255 2.39301 9.0848C2.1449 8.45924 2.20216 6.97487 2.20216 6.28357C2.20216 5.59228 2.14703 4.10578 2.39301 3.48234C2.55841 3.06672 2.87861 2.74652 3.29636 2.579C3.92191 2.33089 5.40629 2.38815 6.09758 2.38815C6.78888 2.38815 8.27537 2.33301 8.89881 2.579C9.31444 2.7444 9.63464 3.0646 9.80216 3.48234C10.0503 4.1079 9.99301 5.59228 9.99301 6.28357C9.99301 6.97487 10.0503 8.46136 9.80216 9.0848Z" fill="#F5F5F5"/>
</svg>
