<svg width="25" height="25" viewBox="0 0 25 25" fill="none" xmlns="http://www.w3.org/2000/svg">
<path opacity="0.15" fill-rule="evenodd" clip-rule="evenodd" d="M12.5001 21.875C17.1025 19.7917 20.8334 16.0607 20.8334 11.4583C20.8334 6.85596 17.1025 3.125 12.5001 3.125C7.89771 3.125 4.16675 6.85596 4.16675 11.4583C4.16675 16.0607 7.89771 19.7917 12.5001 21.875ZM12.5001 14.5833C14.226 14.5833 15.6251 13.1843 15.6251 11.4583C15.6251 9.73245 14.226 8.33333 12.5001 8.33333C10.7741 8.33333 9.37508 9.73245 9.37508 11.4583C9.37508 13.1843 10.7741 14.5833 12.5001 14.5833Z" fill="#37045D"/>
<path d="M12.5 14.5833C14.2259 14.5833 15.625 13.1843 15.625 11.4583C15.625 9.73246 14.2259 8.33334 12.5 8.33334C10.7741 8.33334 9.375 9.73246 9.375 11.4583C9.375 13.1843 10.7741 14.5833 12.5 14.5833Z" stroke="#37045D" stroke-width="1.5" stroke-linecap="round" stroke-linejoin="round"/>
<path d="M12.5001 21.875C17.1025 19.7917 20.8334 16.0607 20.8334 11.4583C20.8334 6.85596 17.1025 3.125 12.5001 3.125C7.89771 3.125 4.16675 6.85596 4.16675 11.4583C4.16675 16.0607 7.89771 19.7917 12.5001 21.875Z" stroke="#37045D" stroke-width="1.5" stroke-linecap="round" stroke-linejoin="round"/>
</svg>
