<svg width="27" height="28" viewBox="0 0 27 28" fill="none" xmlns="http://www.w3.org/2000/svg">
<path fill-rule="evenodd" clip-rule="evenodd" d="M12.1675 17.759C10.2978 19.8256 11.2929 22.5341 12.6757 24.3961C13.8076 25.9202 15.5894 27.0217 18.0302 27.6531L21.214 17.4847C18.4853 15.8276 15.4824 16.3721 12.8334 17.6079L12.1675 17.7589L12.1675 17.759Z" fill="#C5C3C6"/>
<path fill-rule="evenodd" clip-rule="evenodd" d="M12.168 17.7595C20.2879 16.3959 20.6585 16.2766 26.2367 21.8641L26.269 0.42041L17.2634 11.3187C16.6917 12.0334 16.1284 12.7802 15.5812 13.4847L12.168 17.7595H12.168Z" fill="white"/>
<path fill-rule="evenodd" clip-rule="evenodd" d="M10.6965 16.6645C8.95149 18.8373 6.11972 18.283 4.06244 17.2119C2.3786 16.3353 1.00928 14.7499 0 12.4397L9.53719 7.68848C11.6048 10.1209 11.5419 13.1721 10.7404 15.9832L10.6966 16.6645L10.6965 16.6645Z" fill="#C5C3C6"/>
<path fill-rule="evenodd" clip-rule="evenodd" d="M10.6963 16.6649C10.7591 8.4315 10.8183 8.0468 4.41919 3.422L25.5881 0L16.2505 10.6152C15.6351 11.2928 14.9868 11.967 14.3777 12.6187L10.6962 16.6648L10.6963 16.6649Z" fill="white"/>
</svg>
