<svg width="33" height="32" viewBox="0 0 33 32" fill="none" xmlns="http://www.w3.org/2000/svg">
<rect x="1" y="0.5" width="31" height="31" rx="7.5" fill="white"/>
<rect x="1" y="0.5" width="31" height="31" rx="7.5" stroke="#E4E7EC"/>
<path d="M17.5 10.6666C17.5 11.2189 17.0523 11.6666 16.5 11.6666C15.9477 11.6666 15.5 11.2189 15.5 10.6666C15.5 10.1143 15.9477 9.66663 16.5 9.66663C17.0523 9.66663 17.5 10.1143 17.5 10.6666Z" fill="black"/>
<path d="M17.5 16C17.5 16.5522 17.0523 17 16.5 17C15.9477 17 15.5 16.5522 15.5 16C15.5 15.4477 15.9477 15 16.5 15C17.0523 15 17.5 15.4477 17.5 16Z" fill="black"/>
<path d="M16.5 22.3333C17.0523 22.3333 17.5 21.8856 17.5 21.3333C17.5 20.781 17.0523 20.3333 16.5 20.3333C15.9477 20.3333 15.5 20.781 15.5 21.3333C15.5 21.8856 15.9477 22.3333 16.5 22.3333Z" fill="black"/>
</svg>
