<svg width="55" height="56" viewBox="0 0 55 56" fill="none" xmlns="http://www.w3.org/2000/svg">
<rect x="0.5" y="1" width="54" height="54" rx="15.5" fill="white"/>
<rect x="0.5" y="1" width="54" height="54" rx="15.5" stroke="#E7E7E7"/>
<g clip-path="url(#clip0_7882_4817)">
<path d="M27.5 22.2083V25.677" stroke="#181918" stroke-width="1.5" stroke-miterlimit="10" stroke-linecap="round"/>
<path d="M27.5213 17.5833C23.688 17.5833 20.5838 20.6874 20.5838 24.5208V26.7083C20.5838 27.4166 20.2922 28.4791 19.9276 29.0833L18.6047 31.2916C17.7922 32.6562 18.3547 34.177 19.8547 34.677C24.8338 36.3333 30.2192 36.3333 35.1984 34.677C36.6046 34.2083 37.2088 32.5624 36.4484 31.2916L35.1255 29.0833C34.7609 28.4791 34.4692 27.4062 34.4692 26.7083V24.5208C34.4588 20.7083 31.3338 17.5833 27.5213 17.5833Z" stroke="#181918" stroke-width="1.5" stroke-miterlimit="10" stroke-linecap="round"/>
<path d="M30.9687 35.1042C30.9687 37.0105 29.4062 38.573 27.5 38.573C26.552 38.573 25.677 38.1772 25.0521 37.5522C24.4271 36.9272 24.0312 36.0522 24.0312 35.1042" stroke="#181918" stroke-width="1.5" stroke-miterlimit="10"/>
<circle cx="34.5" cy="20" r="3.85714" fill="#FE8235" stroke="white" stroke-width="1.28571"/>
</g>
<defs>
<clipPath id="clip0_7882_4817">
<rect width="25" height="25" fill="white" transform="translate(15 15.5)"/>
</clipPath>
</defs>
</svg>
