<svg width="40" height="40" viewBox="0 0 40 40" fill="none" xmlns="http://www.w3.org/2000/svg">
<rect width="40" height="40" rx="6" fill="#FAFAFA"/>
<path d="M24 16.7734C23.96 16.7667 23.9133 16.7667 23.8733 16.7734C22.9533 16.74 22.22 15.9867 22.22 15.0534C22.22 14.1 22.9866 13.3334 23.94 13.3334C24.8933 13.3334 25.66 14.1067 25.66 15.0534C25.6533 15.9867 24.92 16.74 24 16.7734Z" stroke="#292D32" stroke-linecap="round" stroke-linejoin="round"/>
<path d="M23.3133 21.6267C24.2267 21.78 25.2333 21.62 25.94 21.1467C26.88 20.52 26.88 19.4934 25.94 18.8667C25.2267 18.3934 24.2067 18.2334 23.2933 18.3934" stroke="#292D32" stroke-linecap="round" stroke-linejoin="round"/>
<path d="M15.9799 16.7734C16.0199 16.7667 16.0666 16.7667 16.1066 16.7734C17.0266 16.74 17.7599 15.9867 17.7599 15.0534C17.7599 14.1 16.9933 13.3334 16.0399 13.3334C15.0866 13.3334 14.3199 14.1067 14.3199 15.0534C14.3266 15.9867 15.0599 16.74 15.9799 16.7734Z" stroke="#292D32" stroke-linecap="round" stroke-linejoin="round"/>
<path d="M16.6666 21.6267C15.7533 21.78 14.7466 21.62 14.04 21.1467C13.1 20.52 13.1 19.4934 14.04 18.8667C14.7533 18.3934 15.7733 18.2334 16.6866 18.3934" stroke="#292D32" stroke-linecap="round" stroke-linejoin="round"/>
<path d="M20 21.7534C19.96 21.7467 19.9133 21.7467 19.8733 21.7534C18.9533 21.72 18.22 20.9667 18.22 20.0334C18.22 19.08 18.9866 18.3134 19.94 18.3134C20.8933 18.3134 21.66 19.0867 21.66 20.0334C21.6533 20.9667 20.92 21.7267 20 21.7534Z" stroke="#292D32" stroke-linecap="round" stroke-linejoin="round"/>
<path d="M18.06 23.8534C17.12 24.48 17.12 25.5067 18.06 26.1334C19.1266 26.8467 20.8733 26.8467 21.94 26.1334C22.88 25.5067 22.88 24.48 21.94 23.8534C20.88 23.1467 19.1266 23.1467 18.06 23.8534Z" stroke="#292D32" stroke-linecap="round" stroke-linejoin="round"/>
</svg>
