<svg width="60" height="60" viewBox="0 0 60 60" fill="none" xmlns="http://www.w3.org/2000/svg">
<g clip-path="url(#clip0_128_175)">
<path d="M56.4144 14.6258C55.9431 13.9424 55.007 13.7704 54.3239 14.2415C53.6404 14.7127 53.4684 15.6486 53.9396 16.3321C55.9378 19.2305 56.994 22.7264 56.994 26.4421C56.994 30.1436 55.8893 33.7632 53.8836 36.6341C53.4082 37.3145 53.5743 38.2517 54.2549 38.7271C54.517 38.9103 54.8172 38.9982 55.1145 38.9982C55.5887 38.9982 56.0557 38.7741 56.3479 38.356C58.7372 34.9361 60.0002 30.8163 60.0002 26.4422C60.0001 22.1144 58.7601 18.0284 56.4144 14.6258Z" fill="white"/>
<path d="M51.4744 18.8725C51.0034 18.189 50.0674 18.0169 49.3839 18.4881C48.7004 18.9593 48.5285 19.8953 48.9997 20.5787C50.16 22.2617 50.7734 24.2951 50.7734 26.4592C50.7734 28.6151 50.1319 30.7206 48.9674 32.3876C48.492 33.068 48.6581 34.0052 49.3386 34.4806C49.6008 34.6636 49.9009 34.7516 50.1982 34.7516C50.6726 34.7516 51.1394 34.5276 51.4316 34.1092C52.9677 31.9107 53.7795 29.2652 53.7795 26.4592C53.7795 23.6829 52.9824 21.0595 51.4744 18.8725Z" fill="white"/>
<path d="M45.5459 3.08057C44.8013 3.08057 44.1132 3.49495 43.5039 4.30809C43.4546 4.37302 38.433 10.835 25.9024 14.6983C24.7129 15.065 23.3979 15.324 23.3851 15.3265C23.0878 15.3845 22.8007 15.4774 22.5273 15.6001C22 14.7297 21.0468 14.145 19.9571 14.145H7.31C5.65245 14.145 4.30393 15.4935 4.30393 17.1511V18.8012C4.09321 18.7682 3.87647 18.7498 3.65507 18.7498C1.63966 18.7498 0 20.1816 0 21.9414V30.2516C0 32.0114 1.63966 33.4432 3.65492 33.4432C3.87647 33.4432 4.09306 33.425 4.30378 33.3918V34.7413C4.30378 36.3989 5.6523 37.7474 7.30985 37.7474H7.71627L11.5329 53.5772C11.9849 55.4515 13.8491 56.9196 15.777 56.9196H19.8161C20.8708 56.9196 21.8249 56.4761 22.434 55.7028C23.0431 54.9295 23.2507 53.8979 23.0035 52.8726L19.3568 37.7474H19.957C21.0471 37.7474 22.0006 37.1623 22.5278 36.2914C22.8007 36.4139 23.0875 36.5067 23.3842 36.5647C23.3973 36.5672 24.7123 36.8265 25.9015 37.1938C38.433 41.065 43.4542 47.5207 43.5005 47.5813C44.1128 48.3979 44.8007 48.812 45.5452 48.812C45.5452 48.812 45.5452 48.812 45.5453 48.812C46.2812 48.812 46.9248 48.3947 47.2668 47.696C47.4632 47.295 47.5585 46.8149 47.5585 46.2286V5.66368C47.5588 3.15301 45.7519 3.08057 45.5459 3.08057ZM3.65492 30.4371C3.28473 30.4371 3.06348 30.2838 3.00606 30.2117V21.9812C3.06363 21.909 3.28473 21.7557 3.65492 21.7557C4.02512 21.7557 4.24637 21.909 4.30378 21.9812V30.2117C4.24637 30.2839 4.02512 30.4371 3.65492 30.4371ZM20.0811 53.5772C20.1136 53.7119 20.1002 53.8076 20.0724 53.8429C20.0446 53.8783 19.9547 53.9137 19.8161 53.9137H15.777C15.2266 53.9137 14.5842 53.4078 14.4553 52.8727L10.8086 37.7474H16.2646L20.0811 53.5772ZM7.31 34.7413V30.2516V21.9414V17.1511H19.9573V19.4866C19.9573 19.4872 19.9573 19.4877 19.9573 19.4883V32.4026C19.9573 32.4062 19.9576 32.4097 19.9576 32.4133V34.7413H7.31ZM44.5527 44.2728C42.2109 41.9303 36.688 37.3798 26.7888 34.3217C25.4426 33.9057 24.021 33.6262 23.9612 33.6144C23.4482 33.5141 22.9632 32.9252 22.9632 32.4025V19.4881C22.9632 18.9655 23.4482 18.3768 23.961 18.2767C24.0209 18.2649 25.442 17.9858 26.7881 17.5707C36.6862 14.5191 42.2098 9.96671 44.5527 7.62183V44.2728Z" fill="white"/>
</g>
<defs>
<clipPath id="clip0_128_175">
<rect width="60" height="60" fill="white"/>
</clipPath>
</defs>
</svg>
