<svg width="20" height="20" viewBox="0 0 20 20" fill="none" xmlns="http://www.w3.org/2000/svg">
<path fill-rule="evenodd" clip-rule="evenodd" d="M12.9166 1.66666C11.766 1.66666 10.8333 2.5994 10.8333 3.75V16.25C10.8333 17.4006 11.766 18.3333 12.9166 18.3333H16.25C17.4006 18.3333 18.3333 17.4006 18.3333 16.25V3.75C18.3333 2.5994 17.4006 1.66666 16.25 1.66666H12.9166ZM12.5 3.75C12.5 3.51988 12.6865 3.33333 12.9166 3.33333H16.25C16.4801 3.33333 16.6666 3.51988 16.6666 3.75V16.25C16.6666 16.4801 16.4801 16.6667 16.25 16.6667H12.9166C12.6865 16.6667 12.5 16.4801 12.5 16.25V3.75Z" fill="#F0F2F5"/>
<path fill-rule="evenodd" clip-rule="evenodd" d="M3.74996 9.16666C2.59937 9.16666 1.66663 10.0994 1.66663 11.25V16.25C1.66663 17.4006 2.59937 18.3333 3.74996 18.3333H7.08329C8.23389 18.3333 9.16663 17.4006 9.16663 16.25V11.25C9.16663 10.0994 8.23389 9.16666 7.08329 9.16666H3.74996ZM3.33329 11.25C3.33329 11.0199 3.51984 10.8333 3.74996 10.8333H7.08329C7.31341 10.8333 7.49996 11.0199 7.49996 11.25V16.25C7.49996 16.4801 7.31341 16.6667 7.08329 16.6667H3.74996C3.51984 16.6667 3.33329 16.4801 3.33329 16.25V11.25Z" fill="#F0F2F5"/>
</svg>
