<svg width="48" height="49" viewBox="0 0 48 49" fill="none" xmlns="http://www.w3.org/2000/svg">
<circle cx="24" cy="24.5801" r="24" fill="#F0F2F5"/>
<path d="M18 22.0801C18 19.0425 20.4624 16.5801 23.5 16.5801C26.1907 16.5801 28.432 18.5133 28.907 21.0668C28.9736 21.4248 29.2297 21.7184 29.5754 21.833C31.5661 22.4933 33 24.3705 33 26.5801C33 29.3415 30.7614 31.5801 28 31.5801C27.4477 31.5801 27 32.0278 27 32.5801C27 33.1324 27.4477 33.5801 28 33.5801C31.866 33.5801 35 30.4461 35 26.5801C35 23.6876 33.2462 21.207 30.7463 20.1397C29.8909 16.9381 26.9717 14.5801 23.5 14.5801C19.3579 14.5801 16 17.9379 16 22.0801C16 22.1804 16.002 22.2802 16.0059 22.3796C14.2105 23.4155 13 25.3555 13 27.5801C13 30.8938 15.6863 33.5801 19 33.5801C19.5523 33.5801 20 33.1324 20 32.5801C20 32.0278 19.5523 31.5801 19 31.5801C16.7909 31.5801 15 29.7892 15 27.5801C15 25.9227 16.0082 24.4986 17.4487 23.8918C17.8655 23.7162 18.1126 23.2826 18.0512 22.8345C18.0175 22.5883 18 22.3365 18 22.0801Z" fill="#475367"/>
<path d="M23.3356 26.8327C23.7145 26.4959 24.2855 26.4959 24.6644 26.8327L26.1644 28.166C26.5771 28.5329 26.6143 29.165 26.2474 29.5778C25.9264 29.9389 25.4025 30.0125 25 29.7797V34.5801C25 35.1324 24.5523 35.5801 24 35.5801C23.4477 35.5801 23 35.1324 23 34.5801V29.7797C22.5975 30.0125 22.0736 29.9389 21.7526 29.5778C21.3857 29.165 21.4229 28.5329 21.8356 28.166L23.3356 26.8327Z" fill="#475367"/>
</svg>
