<svg width="150" height="26" viewBox="0 0 150 26" fill="none" xmlns="http://www.w3.org/2000/svg">
<rect x="0.25" y="0.25" width="149.5" height="25.5" rx="5.75" fill="white" stroke="#475467" stroke-width="0.5"/>
<mask id="mask0_944_30142" style="mask-type:alpha" maskUnits="userSpaceOnUse" x="13" y="7" width="16" height="12">
<path fill-rule="evenodd" clip-rule="evenodd" d="M14.4272 13C14.5 13.1259 14.5966 13.2864 14.7163 13.4717C15.0236 13.9475 15.4788 14.5804 16.0697 15.2107C17.2637 16.4843 18.933 17.6667 21 17.6667C23.067 17.6667 24.7363 16.4843 25.9303 15.2107C26.5212 14.5804 26.9764 13.9475 27.2837 13.4717C27.4034 13.2864 27.5 13.1259 27.5728 13C27.5 12.8741 27.4034 12.7136 27.2837 12.5284C26.9764 12.0525 26.5212 11.4196 25.9303 10.7893C24.7363 9.51571 23.067 8.33333 21 8.33333C18.933 8.33333 17.2637 9.51571 16.0697 10.7893C15.4788 11.4196 15.0236 12.0525 14.7163 12.5284C14.5966 12.7136 14.5 12.8741 14.4272 13ZM28.3333 13C28.9296 12.7019 28.9295 12.7016 28.9294 12.7014L28.9283 12.6992L28.926 12.6947L28.9184 12.6799C28.9121 12.6675 28.9031 12.6502 28.8915 12.6283C28.8683 12.5845 28.8347 12.5222 28.7907 12.444C28.7028 12.2878 28.5734 12.0677 28.4038 11.805C28.0653 11.2809 27.5621 10.5804 26.903 9.87737C25.597 8.48429 23.5997 7 21 7C18.4003 7 16.403 8.48429 15.097 9.87737C14.4379 10.5804 13.9347 11.2809 13.5962 11.805C13.4266 12.0677 13.2972 12.2878 13.2093 12.444C13.1653 12.5222 13.1317 12.5845 13.1085 12.6283C13.0969 12.6502 13.0879 12.6675 13.0816 12.6799L13.074 12.6947L13.0717 12.6992L13.0709 12.7008C13.0708 12.701 13.0704 12.7019 13.6667 13L13.0704 12.7019C12.9765 12.8895 12.9765 13.1105 13.0704 13.2981L13.6667 13C13.0704 13.2981 13.0703 13.2979 13.0704 13.2981L13.0717 13.3008L13.074 13.3053L13.0816 13.3201C13.0879 13.3325 13.0969 13.3498 13.1085 13.3717C13.1317 13.4155 13.1653 13.4778 13.2093 13.556C13.2972 13.7122 13.4266 13.9323 13.5962 14.195C13.9347 14.7191 14.4379 15.4196 15.097 16.1226C16.403 17.5157 18.4003 19 21 19C23.5997 19 25.597 17.5157 26.903 16.1226C27.5621 15.4196 28.0653 14.7191 28.4038 14.195C28.5734 13.9323 28.7028 13.7122 28.7907 13.556C28.8347 13.4778 28.8683 13.4155 28.8915 13.3717C28.9031 13.3498 28.9121 13.3325 28.9184 13.3201L28.926 13.3053L28.9283 13.3008L28.9291 13.2992C28.9292 13.299 28.9296 13.2981 28.3333 13ZM28.3333 13L28.9296 13.2981C29.0235 13.1105 29.0232 12.8891 28.9294 12.7014L28.3333 13Z" fill="#061938"/>
<path fill-rule="evenodd" clip-rule="evenodd" d="M20.9999 11.6663C20.2635 11.6663 19.6666 12.2633 19.6666 12.9997C19.6666 13.7361 20.2635 14.333 20.9999 14.333C21.7363 14.333 22.3333 13.7361 22.3333 12.9997C22.3333 12.2633 21.7363 11.6663 20.9999 11.6663ZM18.3333 12.9997C18.3333 11.5269 19.5272 10.333 20.9999 10.333C22.4727 10.333 23.6666 11.5269 23.6666 12.9997C23.6666 14.4724 22.4727 15.6663 20.9999 15.6663C19.5272 15.6663 18.3333 14.4724 18.3333 12.9997Z" fill="#061938"/>
</mask>
<g mask="url(#mask0_944_30142)">
<rect x="13" y="5" width="16" height="16" fill="#344054"/>
</g>
<path d="M45.836 8.636L42.68 17H41.42L38.264 8.636H39.428L42.056 15.848L44.684 8.636H45.836ZM47.5974 9.356C47.3894 9.356 47.2134 9.284 47.0694 9.14C46.9254 8.996 46.8534 8.82 46.8534 8.612C46.8534 8.404 46.9254 8.228 47.0694 8.084C47.2134 7.94 47.3894 7.868 47.5974 7.868C47.7974 7.868 47.9654 7.94 48.1014 8.084C48.2454 8.228 48.3174 8.404 48.3174 8.612C48.3174 8.82 48.2454 8.996 48.1014 9.14C47.9654 9.284 47.7974 9.356 47.5974 9.356ZM48.1254 10.424V17H47.0334V10.424H48.1254ZM55.9865 13.46C55.9865 13.668 55.9745 13.888 55.9505 14.12H50.6945C50.7345 14.768 50.9545 15.276 51.3545 15.644C51.7625 16.004 52.2545 16.184 52.8305 16.184C53.3025 16.184 53.6945 16.076 54.0065 15.86C54.3265 15.636 54.5505 15.34 54.6785 14.972H55.8545C55.6785 15.604 55.3265 16.12 54.7985 16.52C54.2705 16.912 53.6145 17.108 52.8305 17.108C52.2065 17.108 51.6465 16.968 51.1505 16.688C50.6625 16.408 50.2785 16.012 49.9985 15.5C49.7185 14.98 49.5785 14.38 49.5785 13.7C49.5785 13.02 49.7145 12.424 49.9865 11.912C50.2585 11.4 50.6385 11.008 51.1265 10.736C51.6225 10.456 52.1905 10.316 52.8305 10.316C53.4545 10.316 54.0065 10.452 54.4865 10.724C54.9665 10.996 55.3345 11.372 55.5905 11.852C55.8545 12.324 55.9865 12.86 55.9865 13.46ZM54.8585 13.232C54.8585 12.816 54.7665 12.46 54.5825 12.164C54.3985 11.86 54.1465 11.632 53.8265 11.48C53.5145 11.32 53.1665 11.24 52.7825 11.24C52.2305 11.24 51.7585 11.416 51.3665 11.768C50.9825 12.12 50.7625 12.608 50.7065 13.232H54.8585ZM66.1879 10.424L64.1359 17H63.0079L61.4239 11.78L59.8399 17H58.7119L56.6479 10.424H57.7639L59.2759 15.944L60.9079 10.424H62.0239L63.6199 15.956L65.1079 10.424H66.1879ZM70.0629 13.688C70.0629 13.016 70.1989 12.428 70.4709 11.924C70.7429 11.412 71.1149 11.016 71.5869 10.736C72.0669 10.456 72.6029 10.316 73.1949 10.316C73.7069 10.316 74.1829 10.436 74.6229 10.676C75.0629 10.908 75.3989 11.216 75.6309 11.6V8.12H76.7349V17H75.6309V15.764C75.4149 16.156 75.0949 16.48 74.6709 16.736C74.2469 16.984 73.7509 17.108 73.1829 17.108C72.5989 17.108 72.0669 16.964 71.5869 16.676C71.1149 16.388 70.7429 15.984 70.4709 15.464C70.1989 14.944 70.0629 14.352 70.0629 13.688ZM75.6309 13.7C75.6309 13.204 75.5309 12.772 75.3309 12.404C75.1309 12.036 74.8589 11.756 74.5149 11.564C74.1789 11.364 73.8069 11.264 73.3989 11.264C72.9909 11.264 72.6189 11.36 72.2829 11.552C71.9469 11.744 71.6789 12.024 71.4789 12.392C71.2789 12.76 71.1789 13.192 71.1789 13.688C71.1789 14.192 71.2789 14.632 71.4789 15.008C71.6789 15.376 71.9469 15.66 72.2829 15.86C72.6189 16.052 72.9909 16.148 73.3989 16.148C73.8069 16.148 74.1789 16.052 74.5149 15.86C74.8589 15.66 75.1309 15.376 75.3309 15.008C75.5309 14.632 75.6309 14.196 75.6309 13.7ZM81.4483 17.108C80.8323 17.108 80.2723 16.968 79.7683 16.688C79.2723 16.408 78.8803 16.012 78.5923 15.5C78.3123 14.98 78.1723 14.38 78.1723 13.7C78.1723 13.028 78.3163 12.436 78.6043 11.924C78.9003 11.404 79.3003 11.008 79.8043 10.736C80.3083 10.456 80.8723 10.316 81.4963 10.316C82.1203 10.316 82.6843 10.456 83.1883 10.736C83.6923 11.008 84.0883 11.4 84.3763 11.912C84.6723 12.424 84.8203 13.02 84.8203 13.7C84.8203 14.38 84.6683 14.98 84.3643 15.5C84.0683 16.012 83.6643 16.408 83.1523 16.688C82.6403 16.968 82.0723 17.108 81.4483 17.108ZM81.4483 16.148C81.8403 16.148 82.2083 16.056 82.5523 15.872C82.8963 15.688 83.1723 15.412 83.3803 15.044C83.5963 14.676 83.7043 14.228 83.7043 13.7C83.7043 13.172 83.6003 12.724 83.3923 12.356C83.1843 11.988 82.9123 11.716 82.5763 11.54C82.2403 11.356 81.8763 11.264 81.4843 11.264C81.0843 11.264 80.7163 11.356 80.3803 11.54C80.0523 11.716 79.7883 11.988 79.5883 12.356C79.3883 12.724 79.2883 13.172 79.2883 13.7C79.2883 14.236 79.3843 14.688 79.5763 15.056C79.7763 15.424 80.0403 15.7 80.3683 15.884C80.6963 16.06 81.0563 16.148 81.4483 16.148ZM85.848 13.7C85.848 13.02 85.984 12.428 86.256 11.924C86.528 11.412 86.904 11.016 87.384 10.736C87.872 10.456 88.428 10.316 89.052 10.316C89.86 10.316 90.524 10.512 91.044 10.904C91.572 11.296 91.92 11.84 92.088 12.536H90.912C90.8 12.136 90.58 11.82 90.252 11.588C89.932 11.356 89.532 11.24 89.052 11.24C88.428 11.24 87.924 11.456 87.54 11.888C87.156 12.312 86.964 12.916 86.964 13.7C86.964 14.492 87.156 15.104 87.54 15.536C87.924 15.968 88.428 16.184 89.052 16.184C89.532 16.184 89.932 16.072 90.252 15.848C90.572 15.624 90.792 15.304 90.912 14.888H92.088C91.912 15.56 91.56 16.1 91.032 16.508C90.504 16.908 89.844 17.108 89.052 17.108C88.428 17.108 87.872 16.968 87.384 16.688C86.904 16.408 86.528 16.012 86.256 15.5C85.984 14.988 85.848 14.388 85.848 13.7ZM99.3771 10.424V17H98.2851V16.028C98.0771 16.364 97.7851 16.628 97.4091 16.82C97.0411 17.004 96.6331 17.096 96.1851 17.096C95.6731 17.096 95.2131 16.992 94.8051 16.784C94.3971 16.568 94.0731 16.248 93.8331 15.824C93.6011 15.4 93.4851 14.884 93.4851 14.276V10.424H94.5651V14.132C94.5651 14.78 94.7291 15.28 95.0571 15.632C95.3851 15.976 95.8331 16.148 96.4011 16.148C96.9851 16.148 97.4451 15.968 97.7811 15.608C98.1171 15.248 98.2851 14.724 98.2851 14.036V10.424H99.3771ZM109.129 10.304C109.641 10.304 110.097 10.412 110.497 10.628C110.897 10.836 111.213 11.152 111.445 11.576C111.677 12 111.793 12.516 111.793 13.124V17H110.713V13.28C110.713 12.624 110.549 12.124 110.221 11.78C109.901 11.428 109.465 11.252 108.913 11.252C108.345 11.252 107.893 11.436 107.557 11.804C107.221 12.164 107.053 12.688 107.053 13.376V17H105.973V13.28C105.973 12.624 105.809 12.124 105.481 11.78C105.161 11.428 104.725 11.252 104.173 11.252C103.605 11.252 103.153 11.436 102.817 11.804C102.481 12.164 102.313 12.688 102.313 13.376V17H101.221V10.424H102.313V11.372C102.529 11.028 102.817 10.764 103.177 10.58C103.545 10.396 103.949 10.304 104.389 10.304C104.941 10.304 105.429 10.428 105.853 10.676C106.277 10.924 106.593 11.288 106.801 11.768C106.985 11.304 107.289 10.944 107.713 10.688C108.137 10.432 108.609 10.304 109.129 10.304ZM119.584 13.46C119.584 13.668 119.572 13.888 119.548 14.12H114.292C114.332 14.768 114.552 15.276 114.952 15.644C115.36 16.004 115.852 16.184 116.428 16.184C116.9 16.184 117.292 16.076 117.604 15.86C117.924 15.636 118.148 15.34 118.276 14.972H119.452C119.276 15.604 118.924 16.12 118.396 16.52C117.868 16.912 117.212 17.108 116.428 17.108C115.804 17.108 115.244 16.968 114.748 16.688C114.26 16.408 113.876 16.012 113.596 15.5C113.316 14.98 113.176 14.38 113.176 13.7C113.176 13.02 113.312 12.424 113.584 11.912C113.856 11.4 114.236 11.008 114.724 10.736C115.22 10.456 115.788 10.316 116.428 10.316C117.052 10.316 117.604 10.452 118.084 10.724C118.564 10.996 118.932 11.372 119.188 11.852C119.452 12.324 119.584 12.86 119.584 13.46ZM118.456 13.232C118.456 12.816 118.364 12.46 118.18 12.164C117.996 11.86 117.744 11.632 117.424 11.48C117.112 11.32 116.764 11.24 116.38 11.24C115.828 11.24 115.356 11.416 114.964 11.768C114.58 12.12 114.36 12.608 114.304 13.232H118.456ZM124.23 10.304C125.03 10.304 125.678 10.548 126.174 11.036C126.67 11.516 126.918 12.212 126.918 13.124V17H125.838V13.28C125.838 12.624 125.674 12.124 125.346 11.78C125.018 11.428 124.57 11.252 124.002 11.252C123.426 11.252 122.966 11.432 122.622 11.792C122.286 12.152 122.118 12.676 122.118 13.364V17H121.026V10.424H122.118V11.36C122.334 11.024 122.626 10.764 122.994 10.58C123.37 10.396 123.782 10.304 124.23 10.304ZM130.033 11.324V15.2C130.033 15.52 130.101 15.748 130.237 15.884C130.373 16.012 130.609 16.076 130.945 16.076H131.749V17H130.765C130.157 17 129.701 16.86 129.397 16.58C129.093 16.3 128.941 15.84 128.941 15.2V11.324H128.089V10.424H128.941V8.768H130.033V10.424H131.749V11.324H130.033Z" fill="#344054"/>
</svg>
