<svg width="12" height="12" viewBox="0 0 12 12" fill="none" xmlns="http://www.w3.org/2000/svg">
<path d="M10.6463 3.7992C10.528 3.35342 10.1791 3.00233 9.73623 2.88319C8.93344 2.66669 5.71436 2.66669 5.71436 2.66669C5.71436 2.66669 2.49529 2.66669 1.69248 2.88319C1.24958 3.00235 0.90076 3.35342 0.782368 3.7992C0.567261 4.60721 0.567261 6.29305 0.567261 6.29305C0.567261 6.29305 0.567261 7.97888 0.782368 8.78689C0.90076 9.23268 1.24958 9.56913 1.69248 9.68828C2.49529 9.90478 5.71436 9.90478 5.71436 9.90478C5.71436 9.90478 8.93342 9.90478 9.73623 9.68828C10.1791 9.56913 10.528 9.23268 10.6463 8.78689C10.8615 7.97888 10.8615 6.29305 10.8615 6.29305C10.8615 6.29305 10.8615 4.60721 10.6463 3.7992ZM4.66153 7.82366V4.76244L7.35205 6.29309L4.66153 7.82366Z" fill="#F5F5F5"/>
</svg>
